<?xml version="1.0" standalone="no"?>
<!DOCTYPE svg PUBLIC "-//W3C//DTD SVG 20010904//EN"
 "http://www.w3.org/TR/2001/REC-SVG-20010904/DTD/svg10.dtd">
<svg version="1.0" xmlns="http://www.w3.org/2000/svg"
 width="224.000000pt" height="225.000000pt" viewBox="0 0 224.000000 225.000000"
 preserveAspectRatio="xMidYMid meet">
<metadata>
Created by potrace 1.10, written by Peter Selinger 2001-2011
</metadata>
<g transform="translate(0.000000,225.000000) scale(0.100000,-0.100000)"
fill="#000000" stroke="none">
<path d="M890 2209 c-434 -94 -771 -441 -854 -879 -20 -105 -21 -305 -1 -407
45 -232 138 -407 309 -579 221 -220 468 -323 776 -323 308 0 555 103 776 323
171 172 264 347 309 579 20 102 19 302 -1 407 -80 422 -391 757 -811 870 -119
33 -374 37 -503 9z m445 -23 c284 -61 525 -225 682 -464 72 -109 115 -206 150
-341 23 -84 26 -116 26 -256 0 -140 -3 -172 -26 -256 -53 -202 -148 -370 -286
-508 -422 -422 -1096 -423 -1520 -2 -138 137 -235 308 -288 510 -21 80 -26
120 -27 241 -1 161 11 239 57 370 56 162 137 291 256 411 178 177 381 274 656
313 56 8 249 -3 320 -18z"/>
<path d="M1030 2164 c-14 -2 -56 -9 -95 -15 -388 -63 -721 -375 -821 -767
-145 -572 219 -1157 795 -1277 306 -63 633 19 872 219 669 560 400 1640 -454
1822 -72 15 -250 26 -297 18z m205 -18 c142 -11 319 -74 452 -163 139 -92 286
-261 358 -415 65 -138 87 -235 92 -404 6 -174 -7 -263 -61 -406 -52 -138 -118
-239 -231 -353 -155 -157 -312 -243 -525 -287 -136 -29 -347 -21 -475 16 -173
51 -304 127 -434 251 -421 402 -420 1078 2 1482 133 127 279 210 445 253 82
21 232 39 282 34 14 -2 57 -5 95 -8z"/>
<path d="M1009 2126 c-2 -2 -26 -7 -54 -10 -52 -7 -146 -30 -180 -46 -108 -47
-151 -69 -217 -113 -43 -28 -78 -55 -78 -59 0 -14 16 -9 35 12 10 11 23 20 28
20 6 0 0 -11 -13 -25 -30 -32 -18 -45 22 -22 17 10 33 15 36 13 8 -8 -19 -36
-34 -36 -8 0 -14 -4 -14 -10 0 -5 16 -10 35 -10 19 0 35 5 35 11 0 5 -4 7 -10
4 -17 -10 -13 2 17 54 2 2 9 -2 17 -8 8 -7 20 -10 26 -6 8 5 7 10 -3 18 -8 7
-22 24 -31 38 -16 25 -16 27 1 33 12 5 21 1 28 -10 21 -34 43 -59 50 -53 3 4
-4 23 -16 44 -22 37 -22 38 -3 52 22 16 56 14 61 -4 3 -7 -8 -15 -22 -19 l-27
-7 29 -18 c34 -23 44 -23 69 -3 18 15 18 15 -9 9 -37 -8 -53 3 -30 20 15 11
16 17 6 33 -10 16 -7 20 24 31 24 9 38 10 45 3 14 -14 1 -32 -25 -32 -22 0
-22 -1 3 -20 33 -26 74 -25 99 1 12 13 21 17 26 10 3 -6 13 -11 22 -11 11 0
13 4 6 13 -18 22 -25 70 -11 78 8 5 16 -2 25 -22 17 -41 56 -38 63 6 5 27 9
30 45 32 l40 2 -32 -10 c-51 -15 -38 -49 18 -49 10 0 19 -5 19 -11 0 -8 -14
-10 -42 -5 -40 5 -41 5 -24 -9 24 -19 47 -19 71 -1 26 19 12 44 -27 49 l-33 4
33 1 c22 1 32 7 32 18 0 9 5 12 12 8 7 -4 8 -3 4 4 -7 11 -137 18 -147 8z m15
-33 c9 -23 -12 -43 -24 -23 -5 8 -10 21 -10 28 0 18 27 15 34 -5z m-104 -3 c0
-5 -6 -10 -14 -10 -24 0 -40 -28 -26 -45 13 -16 6 -35 -15 -35 -21 0 -28 19
-15 35 7 8 10 21 7 29 -4 10 4 18 21 25 36 13 42 13 42 1z m10 -34 c0 -17 -27
-29 -35 -16 -4 6 -3 15 0 20 9 15 35 12 35 -4z m-322 -118 c2 -10 -13 -24 -38
-37 -22 -11 -40 -17 -40 -12 0 5 7 11 15 15 8 3 20 17 25 32 11 27 33 28 38 2z"/>
<path d="M1210 2121 c0 -6 8 -11 19 -11 10 0 24 -7 31 -15 10 -12 9 -16 -4
-21 -9 -3 -23 -4 -31 0 -20 7 -19 0 6 -35 20 -28 59 -40 59 -18 0 5 -5 7 -10
4 -6 -4 -18 -1 -26 6 -13 10 -11 13 8 24 30 15 56 0 50 -30 -2 -13 2 -24 10
-27 10 -4 14 5 14 33 1 21 7 45 13 53 14 16 5 20 -64 31 -22 4 -48 9 -57 12
-10 2 -18 0 -18 -6z m113 -27 c10 -11 -4 -33 -18 -28 -22 9 -27 34 -6 34 10 0
20 -3 24 -6z"/>
<path d="M1370 2090 c0 -6 6 -10 14 -10 21 0 41 -29 29 -41 -8 -8 -18 -7 -33
1 -20 11 -22 10 -17 -5 4 -9 7 -20 7 -25 0 -14 30 -40 46 -40 21 0 17 17 -6
23 -26 7 -26 27 1 27 13 0 23 8 26 21 4 14 11 18 22 14 9 -4 29 -12 44 -17 35
-13 35 -53 0 -53 -13 0 -23 5 -22 10 0 6 9 9 20 8 25 -4 25 14 -1 22 -23 7
-50 -10 -50 -31 0 -7 10 -19 22 -25 12 -7 31 -21 41 -33 10 -12 16 -15 12 -9
-6 13 11 53 23 53 4 0 14 -5 22 -10 13 -9 12 -13 -7 -29 -13 -11 -23 -22 -23
-25 0 -13 28 -5 44 13 14 15 15 24 6 40 -6 12 -17 21 -25 21 -8 0 -15 5 -15
10 0 15 11 12 52 -13 l37 -23 -19 -30 c-21 -30 -26 -64 -11 -64 5 0 12 10 15
23 3 12 12 30 20 40 14 18 16 18 40 2 26 -17 36 -55 14 -55 -6 0 -20 7 -29 16
-17 16 -18 15 -15 -20 2 -38 29 -76 43 -62 4 4 0 12 -10 17 -27 16 -22 41 8
33 18 -4 27 -1 31 11 4 9 13 14 20 11 8 -3 14 -3 14 0 0 12 -114 94 -130 94
-6 0 -10 4 -10 8 0 10 -112 63 -192 91 -32 12 -58 16 -58 11z"/>
<path d="M1020 1984 c-19 -3 -42 -8 -50 -11 -8 -3 -19 -5 -23 -4 -10 2 -131
-35 -170 -52 l-28 -12 20 -22 c20 -21 20 -23 3 -32 -9 -6 -13 -11 -8 -11 6 0
2 -6 -7 -12 -14 -11 -15 -16 -4 -38 16 -29 13 -29 92 4 44 18 61 31 63 47 3
14 -1 20 -10 17 -7 -3 -12 -13 -12 -22 2 -15 -6 -19 -23 -13 -5 1 -7 6 -5 11
2 5 -2 12 -9 17 -7 4 -9 17 -5 33 5 19 15 28 36 33 17 3 30 9 30 14 0 5 11 9
25 9 14 0 25 5 25 10 0 18 18 11 23 -10 4 -14 -3 -23 -24 -32 -32 -14 -33 -16
-19 -53 7 -18 15 -25 28 -22 9 3 35 8 56 12 29 5 36 9 25 16 -12 8 -12 10 1
19 10 6 11 10 3 10 -16 0 -17 32 -1 48 7 7 24 12 39 12 15 0 31 5 34 10 4 7
12 7 25 0 25 -14 30 -13 30 6 0 8 5 12 10 9 19 -12 5 -40 -25 -51 -19 -7 -31
-19 -33 -33 -5 -31 4 -37 65 -45 45 -6 52 -4 47 9 -4 8 -1 15 6 15 10 0 10 3
0 15 -22 26 5 45 59 41 25 -1 54 -6 64 -11 22 -9 29 -3 21 18 -12 32 -257 66
-374 51z"/>
<path d="M1403 1928 c1 -42 -3 -48 -34 -44 -25 3 -32 -1 -40 -21 -14 -37 -13
-39 45 -60 41 -15 53 -17 49 -7 -3 8 0 14 6 14 7 0 11 7 9 16 -2 9 6 22 17 30
18 11 25 11 49 -1 16 -9 31 -13 34 -10 3 3 16 -5 30 -17 l24 -23 -4 25 c-2 20
-19 33 -88 68 -93 46 -98 48 -97 30z"/>
<path d="M646 1843 c-80 -53 -101 -73 -76 -73 6 0 17 -6 24 -12 11 -11 11 -17
-5 -39 -18 -26 -18 -26 6 -49 l25 -24 28 26 c15 13 42 35 59 47 28 19 31 25
22 42 -5 11 -14 17 -20 14 -5 -4 -5 -13 1 -26 7 -13 7 -19 0 -19 -20 0 -25 2
-23 11 2 4 -6 13 -17 19 -11 6 -20 15 -20 21 0 15 68 79 84 79 21 0 28 16 12
29 -11 9 -32 -1 -100 -46z"/>
<path d="M1077 1883 c-13 -12 -7 -33 8 -33 8 0 15 9 15 20 0 20 -11 26 -23 13z"/>
<path d="M1266 1854 c-8 -22 -8 -24 8 -24 7 0 16 9 19 20 6 24 -18 28 -27 4z"/>
<path d="M1596 1809 c-4 -21 -10 -28 -18 -22 -29 18 -55 13 -68 -13 -14 -24
-13 -27 15 -47 17 -12 47 -37 67 -55 21 -19 42 -31 48 -27 7 4 10 1 8 -6 -1
-8 11 -31 27 -52 17 -22 37 -48 45 -59 10 -12 21 -17 33 -13 26 11 20 28 -8
23 -19 -4 -25 -1 -25 13 0 12 5 16 15 12 10 -3 15 0 13 8 -2 8 7 15 21 17 25
4 76 -42 83 -75 2 -10 12 -17 22 -17 17 2 17 1 -1 -18 -16 -18 -18 -18 -30 -2
-7 10 -13 14 -13 8 0 -5 -5 -1 -10 8 -10 16 -12 16 -39 0 -28 -15 -29 -18 -15
-43 7 -15 23 -53 35 -83 12 -32 25 -54 31 -50 6 4 5 10 -3 15 -11 7 -10 9 4 9
9 0 17 5 17 10 0 6 -9 10 -20 10 -12 0 -20 7 -20 16 0 10 6 14 15 10 9 -3 15
0 15 9 0 8 8 15 18 15 23 0 52 -30 52 -53 0 -9 5 -19 10 -22 6 -3 10 -17 10
-31 0 -26 17 -33 26 -10 15 39 -72 246 -142 340 l-37 50 -18 -23 c-18 -22 -20
-23 -45 -6 -16 10 -30 13 -37 7 -7 -4 -23 -9 -36 -10 -18 -1 -21 2 -12 11 19
19 13 30 -13 23 -28 -7 -46 11 -22 20 9 3 14 10 11 15 -8 12 33 31 54 24 11
-3 22 -12 25 -20 3 -8 12 -15 19 -15 8 0 22 -10 30 -22 14 -20 18 -21 27 -8 8
12 -1 26 -47 68 -32 30 -70 62 -84 73 l-27 19 -6 -31z"/>
<path d="M1147 1807 c4 -20 1 -27 -10 -27 -9 0 -19 5 -23 12 -5 7 -3 8 6 3 8
-5 11 -3 8 6 -3 8 -13 16 -22 17 -24 5 -66 -6 -66 -17 0 -5 9 -7 19 -4 11 3
28 -4 40 -16 37 -37 101 -23 101 22 0 16 -2 17 -15 7 -13 -11 -18 -10 -29 6
-13 17 -14 17 -9 -9z"/>
<path d="M1006 1803 c-5 -12 -9 -14 -18 -5 -18 18 -32 14 -18 -3 18 -22 -4
-46 -22 -26 -11 11 -10 12 1 6 9 -5 12 -4 7 3 -9 15 -27 15 -63 1 -22 -8 -24
-12 -13 -19 20 -13 33 -12 25 0 -3 6 -1 10 4 10 6 0 11 -3 11 -8 0 -15 80 -32
125 -25 l46 6 -18 -32 c-19 -33 -40 -40 -49 -16 -8 20 -24 19 -24 -1 0 -9 -8
-23 -17 -31 -16 -13 -16 -13 5 -3 19 9 22 8 23 -12 1 -13 1 -26 1 -29 -1 -3 6
-6 13 -6 11 0 12 4 4 14 -9 10 -8 13 2 13 10 0 10 3 1 12 -18 18 -15 23 14 23
21 0 25 -4 21 -22 -2 -13 0 -20 6 -16 5 3 6 -3 3 -15 -4 -11 -2 -23 4 -27 15
-9 12 -25 -5 -25 -8 0 -15 7 -15 16 0 14 -7 15 -46 9 -27 -4 -44 -3 -41 3 4 5
0 9 -8 9 -11 0 -12 -4 -5 -13 8 -9 2 -15 -22 -23 -28 -10 -35 -9 -46 6 -14 20
-12 35 7 41 9 3 11 -2 6 -17 -4 -14 -2 -21 6 -21 7 0 9 3 6 7 -4 3 1 12 11 19
14 11 14 13 2 14 -8 0 -32 14 -53 29 l-38 29 53 20 c78 28 86 33 53 27 -46 -9
-145 -58 -196 -97 l-46 -36 1 36 c1 51 -21 52 -30 0 -4 -24 -9 -37 -11 -30 -8
22 -41 13 -63 -17 -23 -33 -11 -53 18 -29 17 14 67 38 79 38 3 0 -14 -21 -38
-47 -24 -27 -52 -59 -62 -73 -16 -22 -16 -22 -7 -2 13 27 5 58 -17 66 -12 5
-14 1 -10 -14 3 -12 1 -20 -6 -19 -27 3 -40 -3 -19 -9 28 -8 29 -28 2 -24 -21
3 -56 -51 -45 -69 10 -16 35 10 28 28 -4 11 -3 14 6 9 6 -4 19 -2 27 5 25 21
25 4 0 -52 -38 -83 -40 -101 -16 -126 11 -13 25 -33 31 -45 l10 -23 -5 23 c-5
25 -2 26 23 13 13 -7 17 -5 18 9 1 13 -4 16 -19 12 -18 -4 -19 -2 -9 15 5 11
7 23 4 27 -3 3 -2 6 3 6 6 0 15 -5 22 -12 9 -9 12 -9 12 0 0 6 8 9 18 6 10 -3
10 -1 -3 5 -53 25 -85 32 -85 20 0 -5 4 -9 9 -9 13 0 20 -25 11 -39 -6 -10
-12 -10 -29 -2 -26 14 -26 17 0 87 l22 57 14 -26 c7 -15 20 -27 27 -27 7 0 19
-6 25 -14 7 -8 21 -12 32 -9 18 5 19 3 7 -23 -7 -16 -15 -31 -18 -34 -3 -3 -5
-9 -5 -15 -2 -54 -19 -114 -33 -118 -15 -4 -15 -5 1 -6 11 -1 17 -9 17 -23 0
-15 -3 -19 -8 -11 -6 10 -12 10 -28 -2 -26 -20 -39 -19 -23 3 13 16 13 16 -7
0 -14 -13 -23 -15 -31 -7 -7 7 -12 4 -16 -10 -6 -22 20 -38 37 -21 5 5 18 10
29 10 11 0 15 5 11 11 -4 7 1 10 12 7 31 -6 28 -35 -6 -51 -17 -9 -37 -14 -45
-11 -7 3 -19 -4 -25 -17 -11 -20 -10 -21 9 -16 12 3 19 1 15 -4 -3 -5 -1 -9 4
-9 5 0 12 10 15 21 4 14 11 20 21 16 8 -3 17 1 20 9 3 8 10 14 15 14 6 0 8 -6
5 -14 -3 -8 -1 -17 5 -21 19 -11 12 -22 -21 -36 -33 -14 -39 -16 -60 -18 -6 0
-8 -4 -5 -8 4 -3 2 -11 -3 -18 -7 -8 0 -11 25 -11 31 1 33 3 18 14 -15 11 -13
12 13 12 20 0 25 3 16 9 -11 7 -10 10 3 15 23 8 27 8 21 -3 -4 -5 -2 -11 2
-13 15 -6 60 -98 51 -104 -5 -3 -6 -10 -3 -16 4 -6 -1 -8 -15 -3 -13 4 -21 2
-21 -5 0 -6 10 -10 23 -8 12 2 21 9 20 16 -4 19 15 14 26 -7 8 -14 5 -23 -16
-41 -27 -23 -26 -23 -53 20 -8 13 -12 13 -38 -1 -28 -16 -30 -15 -42 5 -8 11
-27 53 -42 91 -16 39 -26 57 -23 40 9 -44 60 -145 100 -198 34 -45 35 -46 10
-35 -21 10 -29 9 -43 -5 -15 -16 -15 -17 2 -17 14 0 17 -5 13 -21 -5 -19 -4
-20 12 -5 20 18 36 10 20 -11 -13 -14 1 -37 32 -53 20 -11 36 14 17 26 -7 5
-8 2 -3 -7 5 -8 4 -11 -1 -6 -5 5 -9 18 -10 30 -1 12 -5 31 -9 42 -6 13 6 7
36 -20 24 -22 55 -48 69 -57 l25 -18 -28 6 c-16 4 -34 1 -42 -6 -21 -18 -19
-32 4 -25 16 5 19 2 15 -17 l-5 -23 11 23 c10 25 30 26 38 2 3 -7 0 -10 -7 -6
-23 15 -10 -14 14 -30 25 -16 61 -12 50 5 -3 6 -13 7 -22 4 -11 -4 -14 -2 -9
5 4 6 -1 23 -10 37 -20 30 -12 31 30 6 17 -10 42 -22 56 -25 14 -4 -2 8 -36
26 -39 21 -59 38 -56 47 3 9 -1 11 -14 7 -13 -4 -32 6 -59 29 -36 31 -38 34
-17 35 16 0 21 4 16 13 -5 8 -2 8 9 -2 15 -11 17 -11 17 2 0 8 7 17 15 21 8 3
14 11 13 17 -4 17 28 19 51 2 12 -8 21 -22 21 -31 0 -13 -2 -14 -9 -4 -7 11
-9 10 -14 -3 -4 -9 -3 -13 3 -10 6 3 10 1 10 -4 0 -6 -4 -11 -10 -11 -5 0 -10
-6 -10 -14 0 -8 -7 -16 -17 -18 -14 -3 -14 -4 -1 -15 13 -11 19 -6 38 32 16
30 28 44 38 40 7 -3 16 -5 18 -5 2 0 4 -8 5 -17 0 -10 3 -13 5 -6 4 9 11 9 30
1 25 -12 33 -30 12 -25 -8 1 -13 -8 -13 -21 0 -13 -6 -27 -14 -31 -10 -7 -11
-13 -2 -29 11 -20 12 -21 31 -5 24 21 25 24 5 17 -11 -5 -13 0 -5 25 12 43 18
51 41 51 12 0 17 -5 14 -10 -4 -6 -1 -18 7 -27 7 -9 8 -14 2 -10 -18 10 -24
-54 -8 -71 8 -7 14 -9 14 -4 0 6 3 18 7 28 4 12 3 15 -5 10 -7 -4 -12 -3 -12
3 0 5 5 13 10 16 6 3 10 15 10 26 0 11 7 22 15 25 8 4 15 12 15 20 0 8 7 14
15 14 17 0 20 -11 6 -25 -6 -6 -4 -15 5 -23 8 -7 14 -8 14 -3 0 5 12 11 28 13
19 2 26 8 24 21 -2 10 3 17 13 17 8 0 15 -7 15 -15 0 -16 20 -19 56 -9 15 4
20 11 17 25 -4 13 0 19 12 19 11 0 15 -5 11 -16 -8 -21 24 -11 87 27 27 16 53
27 58 23 5 -3 9 2 9 11 0 9 4 14 10 10 5 -3 7 -12 4 -19 -3 -9 3 -17 16 -21
13 -4 19 -12 16 -21 -4 -10 3 -14 25 -14 31 0 32 19 1 21 -14 0 -13 2 3 9 18
8 18 9 -6 9 -16 1 -30 10 -38 25 -22 41 6 55 47 23 11 -8 11 -12 0 -19 -9 -7
-6 -8 10 -5 12 3 22 1 22 -3 0 -5 9 -8 20 -7 24 2 25 4 5 24 -14 14 -14 17 1
35 16 17 17 18 1 12 -16 -6 -21 -17 -18 -36 0 -5 -4 -8 -9 -8 -6 0 -10 5 -10
10 0 6 -8 10 -17 11 -12 0 -13 2 -5 6 10 4 10 8 -2 17 -14 10 -12 16 12 53 25
39 62 58 62 32 0 -6 7 -9 15 -5 8 3 19 -2 24 -12 6 -9 11 -13 11 -7 0 5 7 -1
16 -13 15 -22 14 -26 -33 -89 -43 -60 -96 -110 -173 -166 -37 -27 -1 -8 48 25
l42 29 0 -29 c0 -49 27 -48 36 1 4 23 9 36 11 30 8 -23 41 -14 63 16 24 34 9
55 -18 25 -16 -17 -16 -17 3 -3 18 13 19 13 7 -3 -8 -9 -19 -15 -27 -12 -7 3
-28 -2 -47 -11 l-33 -17 42 43 c49 53 117 157 133 205 19 56 6 49 -15 -8 l-18
-51 -17 34 c-10 18 -16 40 -13 49 4 13 3 13 -5 0 -6 -8 -8 -18 -6 -22 9 -14
-13 -9 -25 6 -7 8 -20 12 -31 9 -17 -5 -18 -3 -7 26 6 17 18 31 27 32 10 0 11
2 3 6 -7 2 -13 11 -13 18 0 18 30 27 36 11 3 -8 14 -12 26 -8 18 4 19 2 9 -15
-5 -11 -7 -23 -4 -27 3 -3 2 -6 -3 -6 -6 0 -15 5 -22 12 -9 9 -12 9 -12 0 0
-6 -8 -9 -17 -6 -20 5 10 -10 42 -22 47 -17 56 -13 30 12 -14 15 -11 44 6 44
5 0 18 -9 29 -20 26 -26 26 -10 0 18 -11 12 -25 32 -31 44 l-10 23 5 -22 c4
-23 -8 -31 -19 -13 -3 6 -17 8 -30 6 -23 -4 -23 -4 -18 77 3 45 11 89 17 97
10 13 9 13 -6 1 -16 -12 -18 -11 -18 3 0 18 25 22 35 6 5 -8 11 -7 21 1 7 6
20 9 29 5 9 -3 19 3 25 14 13 25 13 27 -5 27 -8 0 -15 -5 -15 -11 0 -6 -5 -4
-10 4 -8 13 -10 12 -10 -2 0 -27 -66 -25 -75 2 -7 22 1 40 17 40 6 0 5 -7 -3
-17 -13 -16 -12 -17 3 -4 10 7 24 11 32 8 8 -3 21 2 30 12 15 17 15 19 0 32
-16 13 -17 12 -12 -8 5 -19 3 -21 -17 -13 -15 6 -29 4 -41 -4 -15 -12 -20 -8
-43 38 -15 28 -23 56 -19 62 4 6 4 14 0 19 -4 4 0 6 8 3 8 -3 34 6 57 19 l42
23 27 -52 c21 -41 24 -56 15 -70 -7 -11 -7 -18 -1 -18 5 0 10 6 11 13 0 6 7
-4 15 -23 13 -33 14 -33 9 -5 -9 47 -58 145 -99 198 -26 34 -31 45 -16 37 14
-8 26 -8 40 0 24 13 27 32 3 23 -13 -5 -15 -2 -10 16 5 21 4 22 -12 7 -20 -18
-36 -10 -20 11 13 14 -1 37 -32 53 -20 11 -36 -14 -17 -26 7 -5 8 -2 3 7 -5 8
-4 11 1 6 5 -5 9 -18 10 -30 1 -12 5 -31 9 -42 5 -13 -8 -6 -36 21 -24 23 -55
49 -69 58 l-25 17 28 -7 c16 -4 33 -1 42 6 21 18 19 32 -4 25 -15 -5 -18 -2
-14 13 2 11 0 23 -5 26 -6 3 -8 -2 -5 -13 6 -23 -14 -38 -30 -22 -9 9 -9 14 1
20 16 9 1 24 -40 40 -22 8 -26 7 -23 -7 1 -10 9 -16 20 -14 10 2 14 -1 10 -8
-4 -6 -2 -17 5 -24 21 -27 20 -57 -4 -79 -12 -12 -28 -35 -35 -52 l-12 -30 21
25 21 25 -6 -25 c-5 -21 -4 -22 5 -7 6 9 8 26 5 37 -4 12 -2 20 6 20 8 0 10
-12 5 -40 -7 -44 -2 -48 29 -23 16 13 17 15 3 10 -15 -5 -18 0 -18 33 0 21 4
41 8 44 5 3 28 -13 53 -34 39 -35 42 -39 21 -40 -16 0 -21 -4 -16 -12 5 -9 2
-9 -9 1 -15 11 -17 11 -17 -2 0 -8 -7 -17 -15 -21 -8 -3 -14 -11 -13 -18 2 -7
-4 -12 -12 -13 -24 0 -110 58 -110 75 0 12 2 12 9 2 12 -20 21 6 11 33 -7 18
-9 17 -21 -11 -12 -27 -17 -31 -36 -23 -13 4 -23 14 -23 20 0 8 4 8 13 1 10
-9 13 -4 15 21 2 17 7 34 13 38 8 4 7 14 -2 30 l-13 24 -7 -25 c-4 -14 -7 -19
-8 -11 -1 8 -4 11 -7 8 -4 -4 -1 -13 6 -22 10 -12 9 -20 -4 -40 -9 -14 -25
-25 -34 -25 -16 0 -18 6 -12 53 4 28 3 54 -1 55 -5 2 -7 8 -3 13 3 5 0 9 -6 9
-6 0 -10 -12 -9 -27 1 -16 -1 -43 -6 -61 -6 -28 -11 -33 -29 -28 -12 3 -25 6
-29 6 -5 0 -7 12 -5 27 2 14 -2 28 -9 30 -9 3 -11 -4 -7 -26 6 -29 5 -31 -25
-31 -27 0 -30 2 -22 18 5 10 6 24 2 30 -9 14 -7 39 4 65 8 20 72 23 141 7 23
-5 61 -6 85 -2 36 6 45 12 47 32 3 21 2 22 -12 11 -13 -11 -16 -11 -16 2 0 9
-4 19 -10 22 -6 4 -9 -4 -7 -17 1 -15 -3 -23 -13 -23 -9 0 -14 7 -12 18 2 11
-6 21 -23 27 -37 14 -52 12 -52 -5 0 -11 7 -13 25 -8 19 4 23 3 17 -7 -5 -8 1
-20 16 -32 l24 -19 -40 8 c-22 4 -92 8 -155 8 -108 0 -114 1 -98 17 10 10 14
25 11 37 -6 25 -9 26 -17 4z m-161 -153 c0 -7 8 -14 18 -16 11 -1 22 -6 25
-10 4 -4 -1 -4 -10 -1 -24 8 -23 -8 2 -43 27 -38 5 -46 -35 -14 -22 18 -25 23
-10 19 16 -5 16 -3 -2 6 -13 7 -23 17 -23 24 0 6 -7 12 -15 12 -9 0 -15 -10
-15 -24 0 -12 5 -23 10 -23 15 0 61 -51 55 -60 -6 -10 -45 0 -45 11 0 5 -7 9
-15 9 -8 0 -15 9 -15 20 0 14 -7 20 -24 20 -20 0 -22 -4 -18 -27 4 -19 7 -22
10 -11 3 17 4 17 21 0 33 -31 42 -58 26 -72 -8 -7 -15 -9 -15 -4 0 9 -51 36
-57 30 -7 -7 9 -35 23 -40 10 -4 12 -2 8 5 -4 7 -2 10 5 8 17 -6 15 -13 -21
-68 -19 -28 -42 -51 -55 -54 -15 -3 -20 0 -16 10 3 8 -2 13 -16 13 -12 0 -21
5 -21 12 0 6 -3 8 -7 5 -3 -4 -13 2 -21 14 -12 18 -11 24 13 60 41 62 95 119
159 166 58 43 81 49 81 23z m195 -75 c0 -12 16 -15 80 -15 64 0 80 3 80 15 0
8 7 15 15 15 18 0 20 -30 3 -30 -7 -1 10 -9 39 -19 70 -24 153 -80 196 -133
40 -48 87 -142 87 -173 0 -15 3 -16 12 -7 16 16 28 15 28 -3 0 -8 -7 -15 -15
-15 -16 0 -19 -20 -9 -57 4 -13 11 -20 20 -16 9 3 14 -1 14 -12 0 -11 -5 -15
-14 -12 -9 4 -16 -3 -20 -16 -9 -33 -7 -59 3 -52 12 7 24 -12 16 -25 -5 -8
-11 -8 -19 -1 -9 8 -15 0 -23 -29 -8 -32 -8 -40 3 -40 8 0 14 -7 14 -15 0 -18
-12 -19 -27 -4 -8 8 -13 5 -18 -10 -13 -41 -88 -123 -147 -162 -34 -21 -56
-39 -50 -39 7 0 12 -7 12 -15 0 -8 -7 -15 -15 -15 -8 0 -15 7 -15 15 0 8 -1
15 -2 15 -2 0 -25 -7 -52 -15 -152 -46 -348 14 -449 137 -39 48 -87 142 -87
172 0 15 -3 16 -14 7 -10 -8 -16 -9 -21 -1 -8 13 4 32 16 25 10 -7 12 19 3 52
-4 13 -11 20 -20 16 -9 -3 -14 1 -14 12 0 11 5 15 14 12 9 -4 16 3 20 16 10
37 7 57 -9 57 -8 0 -15 7 -15 15 0 18 12 19 28 3 9 -9 12 -8 12 8 0 30 47 124
87 172 43 53 126 109 196 133 29 10 46 18 40 19 -18 0 -16 30 2 30 8 0 15 -7
15 -15z m-153 -38 c14 5 27 -14 14 -22 -13 -7 -49 15 -56 34 -5 12 -3 12 12
-1 10 -8 23 -13 30 -11z m743 -69 c0 -5 -10 -8 -22 -9 -27 -1 -81 -31 -79 -43
2 -8 -29 -35 -41 -36 -5 0 -8 7 -8 16 0 10 5 14 15 10 12 -4 13 -2 6 13 -8 14
-5 23 15 40 23 20 27 21 37 7 10 -14 12 -11 13 17 0 31 -2 34 -27 33 -20 -1
-25 -4 -18 -13 7 -8 5 -14 -5 -20 -8 -4 -15 -12 -15 -18 -1 -15 -24 -13 -43 3
-16 13 -18 13 -18 -1 0 -19 -15 -23 -25 -6 -9 13 -4 18 21 22 32 7 54 19 54
31 0 6 15 19 33 28 l32 17 37 -42 c21 -23 38 -45 38 -49z m-842 -653 c-2 -6
-8 -10 -14 -10 -6 0 -20 -7 -30 -15 -11 -8 -9 -3 5 13 24 26 46 33 39 12z
m697 -5 c11 -13 14 -20 6 -20 -21 0 -52 21 -46 31 9 14 20 11 40 -11z m-808
-49 c-5 -23 -2 -26 23 -26 18 0 26 4 20 10 -14 13 -12 25 4 25 7 0 19 7 26 15
12 14 15 14 31 -1 18 -16 19 -16 19 -1 0 19 15 23 25 6 9 -13 4 -18 -21 -22
-32 -7 -54 -19 -54 -31 0 -6 -16 -19 -35 -28 l-35 -17 -36 47 -36 47 29 6 c38
7 46 1 40 -30z"/>
<path d="M674 1519 c-10 -4 -14 -8 -7 -8 6 -1 16 -13 22 -28 8 -20 10 -21 7
-6 -3 17 2 24 23 31 l26 9 -26 5 c-14 2 -34 1 -45 -3z"/>
<path d="M616 1442 c-2 -4 2 -13 10 -20 8 -7 14 -10 14 -6 0 4 11 -3 25 -16
21 -20 27 -21 38 -10 10 10 9 12 -5 7 -11 -4 -15 -2 -13 6 5 13 -62 51 -69 39z"/>
<path d="M1070 1511 c-16 -4 -25 -14 -25 -26 0 -21 -23 -25 -57 -10 -13 5 -28
-4 -58 -35 -42 -43 -49 -63 -27 -77 26 -16 46 -13 44 7 -1 20 -17 29 -17 10 0
-5 -5 -10 -11 -10 -5 0 -7 5 -3 12 5 7 3 8 -6 3 -8 -5 -11 -3 -8 6 3 8 10 15
16 15 25 3 27 5 12 14 -14 9 -12 10 15 10 3 0 5 -3 6 -7 0 -5 5 -13 10 -19 9
-11 5 -45 -6 -65 -5 -7 -12 -6 -23 3 -13 11 -14 11 -10 -2 6 -16 51 -16 56 0
4 10 52 -9 52 -21 0 -4 7 -9 15 -13 9 -3 15 0 15 10 0 8 -3 13 -8 10 -10 -6
-36 15 -40 32 -1 8 4 12 15 10 11 -2 17 -11 15 -21 -2 -10 1 -17 5 -16 35 6
37 -21 4 -49 -14 -12 -14 -13 2 -8 9 3 17 1 17 -5 0 -6 5 -7 10 -4 6 3 10 2
10 -4 0 -5 -4 -13 -10 -16 -5 -3 -10 -14 -9 -23 0 -14 2 -13 9 3 7 17 9 17 9
3 1 -10 5 -18 10 -18 5 0 7 14 5 30 -3 17 -1 30 5 30 6 0 8 -7 5 -15 -4 -8 -1
-15 4 -15 16 0 24 18 12 25 -6 4 -8 11 -5 16 4 5 -2 6 -12 2 -17 -6 -17 -6 0
14 20 23 43 24 59 2 7 -11 9 -9 5 8 -3 13 0 26 5 30 7 3 8 1 4 -5 -4 -7 -2
-12 4 -12 14 0 5 -66 -12 -83 -7 -8 -20 -12 -28 -9 -8 3 -12 2 -9 -2 4 -4 19
-9 35 -12 19 -3 24 -1 16 4 -11 7 -9 10 7 15 12 3 24 1 27 -4 3 -5 9 -7 14 -4
4 3 10 -1 13 -9 6 -14 -9 -16 -29 -4 -7 5 -10 -2 -9 -19 0 -15 6 -28 13 -31 7
-2 12 -18 12 -35 0 -24 -3 -28 -10 -17 -8 12 -10 11 -10 -7 0 -12 5 -25 10
-28 6 -4 8 -15 5 -26 -5 -14 -2 -19 14 -19 11 0 23 -5 27 -12 5 -8 2 -9 -9 -5
-9 3 -19 1 -23 -5 -4 -7 -3 -8 4 -4 7 4 12 2 12 -3 0 -6 -9 -11 -21 -11 -11 0
-17 4 -14 10 4 6 2 16 -3 23 -5 7 -13 27 -17 45 -3 17 -10 32 -15 32 -5 0 -11
8 -13 18 -3 9 -5 2 -6 -16 0 -18 3 -31 8 -28 5 3 12 -2 15 -11 9 -23 -17 -37
-26 -15 -7 14 -7 14 -5 -3 2 -13 9 -19 20 -17 16 3 35 -23 25 -34 -7 -7 -48
-14 -48 -8 0 3 10 9 23 14 21 8 20 9 -7 9 -27 1 -28 3 -23 36 3 20 0 49 -8 67
-12 31 -13 29 -10 -35 2 -51 0 -67 -10 -67 -19 0 -27 32 -21 87 4 33 3 40 -3
23 l-8 -25 -5 25 c-3 14 -3 4 -1 -22 3 -33 1 -48 -7 -48 -7 0 -5 -6 4 -16 17
-17 20 -25 9 -23 -20 3 -24 -2 -14 -15 8 -10 9 -16 1 -21 -6 -4 -9 -3 -8 2 2
4 -1 8 -7 8 -5 0 -9 -5 -7 -12 2 -7 -1 -13 -5 -12 -4 1 -16 -1 -27 -6 -11 -5
-21 -3 -26 4 -5 10 -9 9 -13 -3 -4 -9 -3 -15 1 -15 24 4 40 -4 45 -21 6 -23 6
-23 -27 -10 -22 8 -28 6 -38 -10 -15 -24 -28 -26 -28 -5 0 8 4 15 9 15 16 0
22 36 12 64 -9 21 -8 26 5 26 10 0 14 6 10 15 -4 10 1 15 14 15 22 0 28 -20 8
-21 -7 0 -4 -4 7 -8 26 -11 55 5 55 30 0 12 -4 17 -11 14 -6 -4 -8 -14 -5 -22
3 -8 1 -13 -5 -11 -6 2 -10 6 -9 8 7 34 14 50 21 50 5 0 9 20 9 45 0 25 -5 45
-10 45 -6 0 -9 -12 -8 -27 2 -38 -22 -102 -37 -97 -9 4 -10 17 -4 47 11 57 11
69 -1 62 -16 -10 -11 17 7 37 9 10 11 18 6 18 -24 0 -33 -28 -27 -87 6 -55 5
-62 -14 -72 -19 -10 -39 -45 -56 -94 -8 -24 19 -87 37 -87 8 0 17 -7 21 -15 8
-22 286 -22 286 -1 0 8 8 17 18 20 10 4 25 21 34 39 14 29 13 35 -3 62 -10 17
-18 38 -18 48 -1 11 -10 21 -20 24 -11 3 -22 15 -24 26 -8 32 7 105 31 156 15
32 18 51 12 72 -6 21 -5 29 4 29 7 0 22 13 34 30 27 35 19 64 -27 98 -32 23
-56 28 -65 13 -3 -5 -15 -11 -26 -14 -11 -3 -17 -1 -14 5 9 14 -5 58 -18 58
-6 0 -8 -3 -5 -7 4 -3 -3 -11 -16 -17 -12 -7 -22 -18 -22 -26 0 -23 -36 -38
-62 -27 -24 10 -31 27 -13 27 7 0 7 6 0 19 -9 18 -6 20 34 26 25 4 49 4 55 0
6 -3 11 -1 11 4 0 12 -51 13 -90 2z m115 -51 c-2 -8 -4 -18 -4 -22 -1 -5 -6
-8 -12 -8 -6 0 -8 9 -4 20 4 12 2 20 -5 20 -6 0 -8 -4 -5 -10 3 -5 1 -10 -4
-10 -12 0 -15 13 -5 23 12 12 42 3 39 -13z m-160 -18 c25 -4 41 -19 31 -29 -4
-4 -10 -3 -14 3 -4 5 -19 10 -35 10 -21 1 -25 -2 -17 -11 8 -9 8 -15 0 -20 -5
-3 -10 1 -10 9 0 8 -7 21 -15 30 -14 13 -13 16 2 25 13 7 21 7 28 -2 6 -7 19
-14 30 -15z m282 -19 c17 -21 28 -40 22 -41 -5 -2 -7 -7 -4 -12 3 -4 -6 -3
-20 3 -25 12 -33 27 -15 27 7 0 6 5 -1 13 -14 14 -53 17 -66 4 -4 -5 -1 -8 7
-7 29 4 40 0 40 -17 0 -13 -3 -14 -12 -5 -7 7 -20 12 -30 12 -37 0 -3 55 37
59 5 1 24 -16 42 -36z m-142 -13 c-3 -4 -20 -8 -39 -7 -25 1 -31 4 -22 12 6 7
18 14 26 17 17 6 42 -10 35 -22z m35 5 c0 -8 17 -21 38 -30 53 -21 68 -31 62
-41 -3 -5 -9 -8 -14 -6 -4 1 -14 -2 -22 -9 -11 -9 -11 -15 6 -36 22 -28 18
-46 -6 -36 -13 5 -13 7 -2 14 10 7 9 9 -4 9 -24 0 -23 -17 2 -30 11 -6 18 -15
14 -21 -4 -6 -11 -6 -20 2 -8 6 -14 8 -14 4 0 -4 -6 -2 -13 4 -8 6 -17 8 -21
4 -3 -4 -5 4 -3 18 3 15 11 23 21 23 9 -1 16 2 16 8 0 5 5 6 12 2 6 -4 8 -3 5
4 -4 5 -15 8 -25 5 -14 -3 -22 4 -32 27 -12 28 -14 29 -30 15 -19 -17 -40 -20
-40 -5 0 6 5 10 11 10 14 0 39 26 39 41 0 8 -7 6 -19 -5 -26 -24 -53 -27 -75
-7 -15 12 -18 13 -14 2 2 -8 13 -19 24 -25 10 -6 21 -12 24 -14 2 -2 -2 -7
-10 -12 -11 -7 -12 -10 -2 -10 7 0 10 -5 7 -10 -4 -6 -10 -8 -15 -5 -5 3 -7
-3 -5 -14 2 -14 -1 -18 -10 -15 -11 4 -11 12 -4 31 8 21 6 29 -11 45 -11 10
-20 24 -20 30 0 6 -3 8 -7 5 -3 -4 -13 -1 -21 6 -11 8 -14 8 -9 0 4 -6 3 -14
-3 -18 -6 -4 -8 -10 -5 -15 3 -5 -3 -8 -13 -7 -10 0 -19 7 -19 14 0 6 4 10 8
7 4 -2 13 5 19 16 6 11 8 20 4 20 -4 0 -5 2 -2 5 3 3 18 0 32 -7 23 -10 29 -9
37 3 7 12 9 11 9 -2 0 -9 9 -19 20 -22 11 -3 17 -1 14 4 -3 6 5 7 20 3 19 -4
28 -1 38 15 15 25 28 27 28 6z m-56 -426 c-5 -8 9 -13 28 -10 4 0 4 -7 1 -16
-4 -11 -3 -14 5 -9 7 4 12 1 12 -7 0 -20 -46 -67 -65 -67 -8 0 -15 -4 -15 -10
0 -5 7 -10 15 -10 8 0 15 4 15 10 0 5 6 7 14 4 9 -3 20 5 28 21 l14 26 27 -31
c26 -29 25 -43 -2 -17 -11 10 -13 10 -7 0 4 -7 2 -13 -3 -13 -6 0 -11 6 -12
13 0 10 -2 10 -6 0 -2 -7 -13 -13 -22 -13 -10 0 -21 -3 -25 -7 -10 -10 -56
-12 -50 -1 3 4 -13 8 -35 8 -23 0 -41 5 -41 10 0 6 -5 10 -11 10 -5 0 -7 -5
-3 -12 5 -8 2 -9 -10 -5 -10 4 -20 7 -22 7 -2 0 -4 7 -4 15 0 11 12 14 55 12
58 -3 80 -11 38 -15 -41 -3 -41 -12 0 -12 40 0 47 12 19 32 -25 17 -24 45 2
72 20 21 72 33 60 15z m127 -44 l7 -30 1 28 c2 41 21 33 21 -9 0 -29 -3 -35
-16 -30 -11 4 -15 2 -11 -7 7 -19 -24 -18 -45 1 -10 8 -18 23 -18 33 0 10 -4
21 -10 24 -22 14 -8 26 27 23 33 -3 39 -7 44 -33z"/>
<path d="M1190 1385 c0 -8 7 -18 15 -21 8 -4 12 -11 8 -18 -4 -7 -1 -7 9 1 18
15 29 7 20 -15 -5 -15 -4 -15 12 -2 11 8 14 16 7 18 -6 2 -8 9 -5 14 4 7 2 8
-4 4 -7 -4 -12 -2 -12 4 0 7 -8 9 -21 5 -14 -5 -19 -3 -15 3 3 6 2 13 -4 17
-5 3 -10 -1 -10 -10z"/>
<path d="M1114 945 c-9 -23 10 -40 25 -22 9 11 8 17 -4 27 -12 10 -16 9 -21
-5z"/>
<path d="M1078 1483 c6 -2 10 -9 6 -14 -3 -5 -1 -9 5 -9 6 0 8 -8 4 -17 -5
-17 -4 -17 13 0 19 18 19 18 0 33 -11 8 -25 14 -30 13 -6 0 -5 -3 2 -6z"/>
<path d="M984 1318 c-4 -6 -3 -13 2 -15 24 -8 32 -20 37 -51 5 -28 3 -31 -9
-21 -8 7 -14 7 -14 1 0 -5 -6 -12 -13 -15 -8 -3 -14 1 -14 9 0 7 4 11 9 8 4
-3 8 0 8 7 0 6 -8 9 -19 6 -15 -4 -18 0 -15 14 14 63 14 61 -1 49 -19 -16 -19
-53 0 -90 18 -34 23 -36 40 -13 11 15 14 14 33 -5 12 -12 34 -23 49 -25 15 -3
27 -9 26 -14 -1 -5 5 -10 13 -10 9 0 13 6 10 14 -3 8 -1 11 4 8 5 -3 19 -1 30
5 11 6 21 7 21 3 1 -4 3 -21 5 -37 5 -48 15 -43 13 7 -2 26 -5 47 -8 48 -36 5
-50 4 -48 -4 1 -5 -9 -11 -22 -12 -21 -2 -22 0 -7 10 18 13 22 35 6 35 -6 0
-9 -5 -8 -12 2 -7 -13 -13 -37 -15 -29 -2 -36 0 -25 7 8 5 10 10 4 10 -7 0
-14 10 -17 23 -6 20 -5 21 7 4 11 -14 15 -15 19 -3 4 9 -2 16 -15 20 -19 4
-20 7 -7 22 12 15 12 17 -1 12 -19 -7 -52 10 -45 23 4 5 4 9 1 9 -3 0 -8 -5
-12 -12z"/>
<path d="M1270 800 c11 -7 -4 -10 -50 -11 -48 -1 -58 -3 -40 -9 22 -7 11 -15
-14 -11 -5 1 -3 -5 4 -14 9 -11 15 -13 20 -4 6 8 9 8 13 -2 3 -8 6 -4 6 9 1
19 6 22 44 21 23 0 35 -3 27 -6 -8 -3 -18 -11 -22 -17 -6 -8 -8 -8 -8 0 0 6
-7 11 -15 11 -9 0 -12 -4 -7 -9 12 -12 54 -19 47 -7 -4 5 -2 9 4 9 5 0 12 -6
14 -12 3 -7 6 -2 6 13 1 26 -15 49 -33 49 -6 0 -4 -5 4 -10z"/>
<path d="M943 775 c0 -8 9 -15 19 -15 10 0 18 -4 18 -8 0 -5 7 -9 15 -9 8 0
12 4 9 9 -8 13 21 9 34 -4 9 -9 12 -7 12 10 0 16 6 22 23 21 16 -1 18 -2 5 -6
-10 -2 -18 -9 -18 -14 0 -6 5 -7 11 -3 6 3 15 0 20 -7 7 -11 9 -9 9 7 0 12 7
21 15 21 18 0 20 -14 3 -19 -7 -3 -6 -7 5 -11 13 -5 17 -1 17 18 0 25 0 25
-98 25 -81 0 -99 -3 -99 -15z"/>
<path d="M1450 1789 c-10 -18 -9 -20 7 -17 10 2 19 11 21 21 5 24 -15 21 -28
-4z"/>
<path d="M495 1718 c-25 -28 -55 -64 -66 -79 l-19 -27 29 -7 c28 -6 29 -8 19
-37 -10 -28 -8 -33 12 -50 24 -20 40 -23 40 -9 0 5 18 32 40 60 24 30 37 56
34 66 -7 16 -16 19 -27 8 -4 -3 -2 -12 4 -19 11 -14 4 -34 -12 -34 -5 0 -9 8
-9 17 0 9 -3 13 -7 10 -9 -10 -33 13 -33 32 0 18 22 51 58 86 19 20 20 24 6
29 -8 3 -17 6 -19 6 -2 0 -24 -23 -50 -52z"/>
<path d="M830 1744 c0 -14 -3 -15 -12 -6 -20 20 -32 13 -13 -8 10 -11 16 -20
14 -21 -2 0 -12 -2 -22 -4 -9 -2 -15 1 -11 6 10 17 -24 9 -47 -11 -17 -14 -20
-19 -9 -20 13 0 13 -1 0 -11 -13 -9 -13 -10 0 -6 8 2 14 10 12 16 -2 8 8 10
33 5 44 -8 88 17 83 48 -4 26 -28 36 -28 12z"/>
<path d="M1133 1714 c3 -4 -4 -15 -16 -25 -12 -10 -16 -18 -9 -19 6 0 12 4 12
8 0 12 31 8 59 -7 18 -10 25 -10 35 0 8 9 7 11 -7 6 -12 -5 -27 2 -43 18 -14
14 -28 25 -31 25 -4 0 -4 -3 0 -6z"/>
<path d="M1344 1702 l39 -18 -24 -15 c-17 -12 -20 -17 -9 -24 9 -6 11 -4 5 5
-5 9 -4 11 4 6 6 -4 9 -12 6 -17 -4 -5 -1 -17 4 -26 9 -16 10 -16 11 4 0 12 5
25 11 29 8 4 7 9 -2 15 -21 13 -3 22 20 9 12 -6 21 -8 21 -6 0 8 -70 42 -100
50 -14 3 -8 -2 14 -12z"/>
<path d="M945 1695 c-3 -11 -11 -29 -17 -40 -10 -18 -9 -19 5 -6 15 12 17 11
17 -8 0 -12 6 -21 15 -21 17 0 20 16 5 25 -6 4 -8 10 -5 15 3 4 1 19 -4 32 -9
22 -9 22 -16 3z"/>
<path d="M381 1567 c-20 -33 -71 -142 -71 -153 0 -3 6 -4 13 -3 40 5 47 -1 42
-35 -4 -32 -1 -35 26 -41 17 -4 31 -5 32 -3 2 1 12 26 23 54 21 51 21 51 1 46
-14 -4 -18 -2 -13 7 5 8 3 12 -5 10 -43 -5 -58 24 -35 69 8 16 12 32 9 35 -3
4 2 9 11 13 20 8 21 34 2 34 -8 0 -24 -15 -35 -33z"/>
<path d="M1666 1514 c-3 -8 -2 -13 3 -10 5 3 11 -1 15 -9 3 -8 1 -15 -4 -15
-13 0 -6 -56 10 -75 14 -16 55 -20 64 -6 3 5 -4 11 -16 15 -18 4 -20 8 -10 18
6 6 12 16 12 22 0 5 -6 2 -13 -9 -8 -10 -19 -15 -26 -11 -9 6 -8 11 5 21 16
11 16 14 -5 44 -26 36 -27 36 -35 15z"/>
<path d="M1605 1392 c-3 -8 -12 -12 -19 -9 -20 8 -42 -18 -25 -29 8 -5 9 -3 4
6 -5 9 -2 10 14 5 12 -4 21 -2 21 4 0 6 6 11 14 11 7 0 19 6 26 14 9 12 8 15
-9 13 -11 -1 -23 -7 -26 -15z"/>
<path d="M286 1328 c-28 -140 -29 -135 4 -130 25 3 29 0 35 -27 6 -27 11 -31
41 -31 33 0 34 2 34 38 0 20 3 48 6 62 5 20 3 22 -5 10 -9 -12 -13 -12 -19 -2
-5 7 -16 10 -26 6 -27 -10 -46 24 -39 71 3 22 9 44 14 50 14 15 10 25 -10 25
-16 0 -22 -13 -35 -72z"/>
<path d="M480 1361 c8 -16 6 -20 -13 -24 l-22 -4 23 -2 c23 -1 30 -25 10 -37
-7 -5 -8 -3 -3 6 5 8 3 11 -5 8 -17 -5 -34 -54 -26 -74 9 -24 27 -5 20 22 -5
19 -3 23 9 18 32 -12 62 67 35 94 -20 20 -40 15 -28 -7z"/>
<path d="M1747 1374 c-4 -4 -7 -14 -7 -23 0 -14 2 -14 10 -1 13 19 14 -3 1
-28 -26 -51 -33 -71 -28 -84 3 -7 6 -2 7 12 l1 25 9 -23 c11 -26 33 -37 58
-27 16 6 16 7 -1 16 -14 8 -15 14 -7 24 9 11 7 12 -8 8 -11 -2 -23 0 -26 6 -4
6 0 11 10 11 14 0 16 7 11 37 -7 39 -19 58 -30 47z"/>
<path d="M405 1310 c3 -5 -4 -10 -16 -10 -18 0 -19 -2 -9 -15 7 -9 18 -14 23
-12 14 4 19 47 6 47 -5 0 -7 -4 -4 -10z"/>
<path d="M1852 1308 c-22 -6 -32 -14 -29 -22 3 -7 9 -35 12 -61 4 -26 11 -42
15 -36 4 7 15 9 25 5 13 -5 16 -4 11 4 -9 15 9 15 35 2 13 -7 19 -21 19 -45 0
-18 5 -37 10 -40 7 -4 7 -12 0 -24 -11 -21 -4 -32 16 -24 16 6 18 53 8 152 -5
39 -11 60 -18 57 -44 -18 -46 -18 -46 -2 0 9 -4 16 -9 16 -5 0 -11 6 -13 13
-2 10 -11 11 -36 5z"/>
<path d="M506 1239 c-7 -34 -8 -215 -2 -208 4 4 15 239 11 239 -2 0 -5 -14 -9
-31z"/>
<path d="M1732 1163 l-2 -62 -29 9 c-16 4 -44 4 -62 0 l-34 -8 30 -2 c17 -1
36 -2 43 -1 19 3 14 -7 -9 -20 -15 -8 -19 -8 -15 0 4 7 -1 11 -13 11 -12 0
-21 -5 -21 -11 0 -5 4 -7 10 -4 5 3 7 0 4 -8 -3 -8 -1 -18 5 -22 6 -3 11 -2
11 3 0 9 59 42 75 42 4 0 5 -26 2 -57 -5 -48 -5 -53 4 -25 5 18 8 74 6 125 -2
67 -3 75 -5 30z"/>
<path d="M430 1201 c0 -6 5 -13 11 -16 6 -5 4 -12 -8 -21 -17 -13 -16 -14 7
-11 17 1 25 -3 25 -13 0 -9 -7 -14 -18 -12 -15 3 -18 -3 -15 -34 2 -21 9 -39
17 -42 9 -3 11 1 7 16 -5 14 0 28 13 41 25 25 27 63 5 85 -17 18 -44 21 -44 7z"/>
<path d="M564 1185 c-22 -12 -39 -26 -36 -33 5 -17 22 -15 22 3 0 8 7 15 16
15 14 0 14 -3 4 -15 -10 -12 -10 -15 4 -15 9 0 16 5 16 12 0 6 7 19 16 29 23
26 4 28 -42 4z"/>
<path d="M1676 1184 c-3 -8 -10 -13 -15 -10 -5 3 -20 2 -33 -3 -21 -9 -21 -10
-3 -11 20 -1 20 -1 0 -10 -16 -7 -17 -9 -3 -9 9 -1 20 4 23 9 3 6 11 10 16 10
6 0 7 -6 3 -12 -6 -10 -4 -10 8 0 8 7 23 10 32 6 19 -7 22 16 4 34 -16 16 -25
15 -32 -4z"/>
<path d="M1784 1182 c5 -14 0 -28 -13 -41 -32 -32 -26 -80 11 -94 20 -7 34 8
18 18 -7 5 -5 12 7 21 17 13 16 14 -7 11 -17 -1 -25 3 -25 13 0 9 7 14 18 12
15 -3 18 3 15 34 -2 21 -9 39 -17 42 -9 3 -11 -1 -7 -16z"/>
<path d="M273 1183 c-14 -5 -17 -74 -6 -161 4 -39 9 -52 19 -48 8 4 21 9 29
12 10 4 15 0 15 -11 0 -9 4 -13 10 -10 5 3 10 -1 10 -9 0 -10 9 -16 23 -16 42
0 46 10 32 75 -7 33 -13 54 -14 47 -1 -9 -8 -11 -22 -7 -15 5 -19 4 -15 -4 9
-14 -9 -14 -35 -1 -13 7 -19 21 -19 45 0 18 -5 37 -10 40 -7 4 -7 12 0 25 11
20 3 30 -17 23z"/>
<path d="M158 1159 c-24 -13 -23 -56 0 -68 14 -7 25 -6 40 5 26 18 28 37 6 58
-18 19 -23 19 -46 5z"/>
<path d="M2036 1154 c-22 -21 -20 -40 6 -58 15 -11 26 -12 40 -5 24 13 23 55
-1 69 -25 13 -27 13 -45 -6z"/>
<path d="M1840 1073 c0 -21 -3 -49 -6 -63 -5 -20 -4 -22 6 -10 9 11 13 12 17
3 3 -8 14 -11 28 -7 17 4 26 0 35 -15 6 -12 8 -27 4 -33 -5 -7 -7 -25 -6 -40
1 -14 -2 -29 -8 -33 -17 -10 -11 -25 9 -25 16 0 22 13 35 73 29 142 29 137 -3
131 -26 -6 -30 -3 -36 25 -6 27 -11 31 -41 31 -33 0 -34 -2 -34 -37z"/>
<path d="M437 1024 c-4 -4 1 -13 11 -20 10 -8 12 -13 5 -14 -7 0 -13 -4 -13
-9 0 -5 8 -7 19 -4 10 3 22 -1 26 -9 5 -7 5 -10 0 -6 -4 4 -14 3 -21 -2 -9 -8
-9 -19 -1 -45 11 -36 37 -48 37 -17 0 14 -2 15 -10 2 -13 -19 -14 3 -1 28 26
51 33 71 28 84 -3 7 -6 2 -6 -12 l-1 -25 -13 25 c-12 24 -46 38 -60 24z"/>
<path d="M1777 1024 c-4 -4 -4 -18 0 -32 4 -18 3 -23 -6 -18 -16 10 -51 -31
-51 -59 0 -24 17 -45 37 -45 10 0 11 5 3 19 -8 16 -6 20 13 24 l22 4 -22 2
c-24 1 -31 25 -11 37 7 5 8 3 3 -6 -5 -8 -3 -11 6 -8 18 6 35 66 22 79 -5 5
-12 6 -16 3z"/>
<path d="M284 956 c-15 -39 72 -246 142 -340 l37 -50 18 23 c18 22 20 23 45 6
25 -16 27 -16 49 5 l24 23 -29 36 c-17 20 -38 46 -47 59 -12 16 -24 21 -36 17
-27 -11 -20 -28 8 -21 18 5 25 2 25 -9 0 -8 -7 -15 -15 -15 -8 0 -14 -6 -12
-12 1 -8 -9 -13 -27 -13 -24 0 -35 9 -60 47 -17 26 -37 45 -43 43 -20 -7 -15
13 5 24 14 7 23 5 35 -10 20 -22 36 -24 61 -6 18 13 17 17 -9 84 -23 58 -31
70 -46 66 -25 -7 -24 -23 1 -23 12 0 20 -7 20 -16 0 -10 -5 -14 -16 -10 -8 3
-13 2 -10 -3 3 -5 -1 -12 -10 -15 -23 -9 -64 20 -64 44 0 10 -4 22 -10 25 -5
3 -10 17 -10 31 0 26 -17 33 -26 10z"/>
<path d="M162 938 c-7 -7 -12 -19 -12 -27 0 -11 18 -74 26 -89 1 -1 9 0 18 4
18 7 22 49 4 60 -8 5 -9 2 -5 -9 4 -11 1 -17 -7 -17 -19 0 -29 30 -15 46 6 8
22 14 35 14 24 0 29 -11 24 -54 -1 -12 3 -16 10 -11 14 8 6 60 -11 82 -14 16
-51 17 -67 1z"/>
<path d="M2016 931 c-9 -10 -19 -34 -22 -52 -6 -32 -4 -35 31 -48 20 -7 38
-11 40 -9 2 2 9 24 16 50 10 38 10 49 0 62 -18 21 -44 20 -65 -3z m52 -24 c10
-11 6 -57 -4 -57 -3 0 -56 22 -62 26 -2 1 1 12 8 23 12 24 42 28 58 8z"/>
<path d="M1794 866 c-21 -53 -21 -53 -1 -48 14 4 18 2 12 -7 -5 -10 -2 -11 14
-6 32 10 49 -33 26 -68 -9 -15 -14 -31 -10 -37 3 -5 -1 -13 -9 -16 -22 -8 -20
-36 1 -32 15 3 102 157 103 181 0 4 -13 7 -30 7 -28 0 -30 2 -26 34 4 28 1 35
-17 40 -38 10 -41 7 -63 -48z"/>
<path d="M611 890 c0 -15 -6 -31 -12 -37 -9 -9 -7 -12 9 -10 12 0 24 7 26 14
3 7 14 13 25 13 24 0 36 16 20 26 -8 5 -9 3 -4 -6 5 -9 2 -10 -14 -5 -12 4
-21 2 -21 -4 0 -21 -19 -11 -23 12 -4 20 -4 20 -6 -3z"/>
<path d="M1543 863 c-10 -4 -10 -7 0 -16 22 -20 74 -47 80 -41 7 7 -17 34 -29
34 -4 0 -15 6 -23 14 -9 7 -22 11 -28 9z"/>
<path d="M485 850 c-3 -5 0 -10 7 -10 7 0 24 -9 37 -19 20 -15 21 -19 7 -24
-15 -6 -15 -9 -1 -36 19 -37 31 -45 39 -25 3 8 2 13 -3 10 -5 -3 -11 1 -15 9
-3 8 -1 15 4 15 15 0 12 43 -6 68 -16 23 -58 30 -69 12z"/>
<path d="M1723 849 c-6 -6 -9 -18 -6 -27 4 -10 2 -13 -5 -8 -15 9 -49 -9 -62
-35 -13 -24 -5 -55 17 -63 12 -5 14 -1 10 14 -4 16 0 20 21 21 26 1 26 1 4 7
-27 8 -28 28 -1 24 12 -2 24 8 34 29 17 32 9 59 -12 38z"/>
<path d="M206 794 c-11 -30 -6 -60 14 -82 25 -27 42 -28 63 -4 21 23 21 35 2
72 -12 23 -23 30 -44 30 -17 0 -31 -6 -35 -16z m72 -27 c5 -23 -15 -47 -39
-47 -11 0 -19 2 -19 4 0 2 -3 11 -6 19 -7 18 23 49 45 45 8 -2 17 -11 19 -21z"/>
<path d="M1970 800 c0 -5 11 -12 25 -16 35 -9 31 -17 -17 -34 -23 -8 -43 -20
-45 -26 -4 -13 67 -58 76 -48 3 4 1 9 -5 11 -6 2 -20 10 -30 18 -19 13 -19 14
1 20 36 11 68 30 72 42 3 6 -9 19 -26 27 -35 18 -51 20 -51 6z"/>
<path d="M1730 741 c0 -5 -18 -32 -41 -61 -32 -41 -38 -54 -29 -66 7 -7 16
-11 22 -8 5 3 4 11 -2 19 -12 15 -6 35 11 35 5 0 9 -7 9 -17 0 -9 3 -13 7 -10
9 9 33 -12 33 -30 0 -17 -39 -73 -64 -92 -14 -11 -15 -15 -5 -22 23 -14 26
-12 94 68 l66 77 -30 11 c-29 10 -29 11 -16 41 12 29 11 32 -15 48 -32 18 -40
20 -40 7z"/>
<path d="M795 696 c0 -27 15 -49 15 -23 0 8 3 22 6 31 4 10 1 16 -8 16 -8 0
-14 -10 -13 -24z"/>
<path d="M1400 710 c0 -6 -6 -8 -12 -5 -7 4 -3 -2 10 -13 12 -11 19 -22 15
-25 -5 -2 -2 -2 4 -1 7 2 16 -7 19 -21 7 -28 34 -23 34 7 0 18 -2 19 -17 7
-11 -10 -14 -10 -9 -1 4 6 2 12 -3 12 -6 0 -11 5 -11 11 0 6 -7 17 -15 25 -9
9 -15 11 -15 4z"/>
<path d="M288 668 c-34 -56 -27 -72 29 -65 43 5 61 12 52 22 -3 2 -22 0 -43
-6 -21 -6 -40 -9 -42 -7 -2 2 9 21 23 41 18 26 23 41 16 48 -7 7 -18 -3 -35
-33z"/>
<path d="M880 667 c0 -36 -10 -57 -27 -57 -13 0 -13 -3 -3 -15 22 -27 47 -2
44 45 -2 46 -14 69 -14 27z"/>
<path d="M1350 683 c0 -5 5 -14 11 -20 12 -12 4 -33 -13 -33 -5 0 -8 7 -5 15
4 8 1 17 -5 21 -7 4 -8 3 -4 -4 4 -7 1 -12 -8 -12 -26 0 -18 -14 15 -29 17 -7
39 -23 50 -34 19 -20 19 -21 16 -2 -8 40 -57 125 -57 98z"/>
<path d="M1264 649 c-4 -8 -3 -9 4 -5 7 4 12 3 12 -3 0 -5 -6 -12 -12 -15 -10
-5 -10 -7 0 -12 6 -3 12 -11 12 -16 0 -6 -3 -8 -6 -5 -4 3 -15 2 -25 -4 -16
-8 -19 -6 -20 13 -1 13 -1 26 -1 29 1 3 -6 6 -13 6 -11 0 -12 -4 -4 -14 9 -10
8 -13 -2 -13 -10 0 -10 -3 -1 -12 18 -18 15 -23 -13 -23 -24 0 -30 11 -27 55
0 11 -3 10 -13 -4 -8 -11 -11 -26 -7 -35 9 -19 8 -39 -3 -63 -9 -22 -54 -23
-150 -3 -85 18 -92 18 -40 -1 52 -20 209 -29 260 -15 40 11 40 11 -12 6 l-52
-6 17 31 c18 32 39 39 48 15 9 -21 24 -19 24 4 0 32 27 33 39 1 7 -21 6 -30
-2 -33 -7 -2 2 -2 18 1 17 2 46 13 65 24 34 18 27 18 -33 -4 -37 -14 -42 -6
-23 32 13 27 13 30 1 20 -13 -11 -15 -8 -15 18 0 33 -14 50 -26 31z"/>
<path d="M1887 646 c-3 -8 4 -33 16 -55 23 -43 39 -54 30 -22 -7 27 14 61 37
61 35 0 22 17 -17 24 -54 8 -60 8 -66 -8z"/>
<path d="M1098 610 c-10 -7 -14 -18 -11 -31 6 -21 6 -21 -23 -3 -27 17 -27 17
5 -14 33 -32 48 -41 36 -22 -3 6 -1 10 6 10 10 0 10 3 2 11 -8 8 -8 20 -3 35
5 13 8 24 7 24 -1 0 -9 -5 -19 -10z"/>
<path d="M595 600 c-4 -6 1 -7 12 -3 15 5 16 3 6 -8 -19 -20 -16 -30 10 -27
12 2 22 -1 22 -7 0 -5 -3 -9 -7 -7 -5 1 -8 -7 -8 -17 0 -34 -61 -38 -74 -5 -3
8 -12 14 -19 14 -8 0 -22 10 -30 23 -14 18 -18 20 -26 7 -13 -19 -11 -20 77
-96 l77 -65 7 30 c8 28 10 29 40 21 25 -8 34 -6 44 8 21 27 17 37 -25 66 -21
15 -49 38 -61 51 -25 27 -35 30 -45 15z"/>
<path d="M350 571 c-28 -23 -31 -30 -22 -47 6 -12 19 -27 29 -35 17 -13 17
-13 0 13 -19 31 -3 53 18 25 7 -10 16 -17 20 -17 5 0 0 9 -10 20 -14 15 -16
23 -7 32 8 8 16 5 31 -13 11 -13 20 -20 21 -15 0 4 -11 21 -24 36 l-23 29 -33
-28z"/>
<path d="M1584 572 c-17 -15 -43 -36 -58 -47 -26 -19 -26 -21 -11 -40 16 -19
16 -19 12 8 -2 15 0 27 4 27 5 0 12 0 17 0 4 0 7 -6 7 -12 1 -7 6 -12 13 -10
7 1 12 -9 12 -26 0 -29 -49 -82 -75 -82 -20 0 -27 -16 -12 -29 10 -8 32 1 89
39 84 55 110 80 84 80 -9 0 -16 5 -16 11 0 5 -4 7 -10 4 -16 -10 -11 8 10 35
19 25 19 25 -2 47 -27 28 -26 28 -64 -5z"/>
<path d="M1499 583 c-1 -5 -1 -12 0 -16 1 -4 -15 -5 -34 -1 -41 7 -85 -16 -85
-46 0 -26 17 -34 28 -14 6 11 11 13 16 5 4 -6 12 -11 18 -11 6 0 3 9 -7 20
-10 11 -16 20 -14 21 2 0 12 2 22 4 9 2 15 -1 11 -6 -10 -17 24 -9 47 11 17
14 20 19 9 20 -13 0 -13 1 0 10 10 6 11 10 3 10 -7 0 -14 -3 -14 -7z"/>
<path d="M1836 572 c-3 -5 10 -24 29 -42 29 -28 35 -31 41 -17 4 11 -4 25 -23
41 -30 27 -39 31 -47 18z"/>
<path d="M1795 520 c-10 -17 51 -78 65 -64 7 7 -1 21 -24 43 -23 23 -36 29
-41 21z"/>
<path d="M412 487 c-23 -24 -30 -37 -22 -42 6 -4 17 -2 23 4 19 19 27 12 25
-20 -2 -19 2 -34 10 -36 7 -3 12 5 12 22 0 14 4 24 9 21 5 -3 14 1 20 8 10 11
6 21 -16 46 l-28 31 -33 -34z m58 -17 c0 -11 -4 -20 -9 -20 -13 0 -32 26 -24
33 13 14 33 6 33 -13z"/>
<path d="M877 513 c-13 -13 -7 -35 8 -29 9 3 15 0 15 -9 0 -7 4 -17 10 -20 6
-4 9 4 7 17 -1 15 3 23 13 23 8 0 14 -7 12 -17 -3 -19 2 -23 39 -32 30 -7 49
18 23 28 -9 3 -12 1 -9 -4 3 -6 -1 -10 -10 -10 -9 0 -14 4 -10 10 16 27 -75
67 -98 43z"/>
<path d="M1231 491 c-23 -23 -19 -60 4 -41 9 8 15 8 20 0 3 -5 11 -10 17 -10
6 0 6 6 -2 15 -18 22 4 46 23 26 10 -11 9 -12 -2 -6 -9 5 -12 4 -7 -3 4 -7 15
-12 24 -12 20 1 73 29 54 30 -7 0 -10 4 -7 10 3 6 -1 7 -9 4 -9 -3 -13 -10
-10 -15 3 -5 1 -9 -5 -9 -5 0 -11 4 -13 10 -1 5 -17 12 -34 16 -25 5 -37 1
-53 -15z"/>
<path d="M1052 478 c-7 -7 -12 -21 -12 -31 0 -16 2 -17 15 -7 13 11 18 10 29
-6 13 -17 14 -17 9 9 -4 20 -1 27 10 27 9 0 19 -5 23 -12 5 -7 3 -8 -6 -3 -8
5 -11 3 -8 -6 3 -8 13 -16 22 -17 24 -5 66 6 66 17 0 5 -9 7 -19 4 -11 -3 -28
4 -40 16 -23 23 -70 28 -89 9z"/>
<path d="M1417 465 c-27 -13 -44 -26 -38 -29 5 -4 8 -13 4 -21 -3 -8 0 -15 7
-15 23 0 5 -45 -25 -59 -16 -8 -31 -18 -33 -23 -2 -4 -15 -8 -28 -8 -13 0 -24
-4 -24 -10 0 -19 -18 -10 -23 11 -5 17 1 24 24 32 32 13 33 15 20 50 -9 23
-14 24 -58 20 -44 -5 -86 -23 -53 -23 10 0 11 -3 3 -11 -9 -9 -9 -16 0 -30 19
-31 -10 -50 -77 -52 -40 -1 -56 -5 -56 -15 0 -7 -4 -10 -10 -7 -16 10 -5 48
14 51 36 5 46 14 46 39 0 28 -4 31 -72 40 -41 5 -47 4 -42 -9 4 -9 1 -16 -6
-16 -10 0 -10 -3 0 -15 22 -27 -5 -45 -61 -42 -27 2 -52 6 -55 10 -15 14 -32
7 -27 -12 9 -37 237 -70 358 -51 39 5 77 11 85 11 28 1 182 52 199 66 2 1 -6
12 -19 23 -20 17 -20 20 -6 26 9 3 14 10 11 14 -3 4 2 10 10 14 20 7 19 19 -2
44 -18 20 -18 20 -66 -3z"/>
<path d="M1760 456 c0 -28 4 -35 25 -40 27 -7 45 -1 45 15 0 5 -13 9 -29 9
-25 0 -28 3 -23 25 2 15 0 25 -7 25 -6 0 -11 -15 -11 -34z"/>
<path d="M817 454 c3 -8 -1 -14 -11 -14 -10 0 -13 -5 -9 -16 4 -10 -1 -22 -12
-30 -15 -11 -22 -11 -46 1 -15 8 -34 15 -42 15 -8 0 -17 7 -21 15 -9 23 -28
18 -24 -7 2 -17 24 -33 88 -65 88 -44 106 -50 95 -33 -3 6 -3 19 0 30 5 15 13
19 35 16 25 -3 31 1 40 27 5 17 9 31 8 33 -2 1 -26 11 -55 22 -39 15 -50 16
-46 6z"/>
<path d="M1717 443 c-7 -12 38 -73 54 -73 16 0 10 15 -19 50 -18 21 -31 29
-35 23z"/>
<path d="M498 406 c-15 -18 -24 -36 -21 -39 3 -4 15 6 27 21 l21 27 5 -49 c3
-27 10 -51 16 -53 7 -2 22 12 34 32 26 43 20 60 -7 19 l-18 -28 -5 48 c-3 27
-9 51 -15 53 -5 2 -22 -12 -37 -31z"/>
<path d="M1337 433 c-4 -3 -7 -15 -7 -25 0 -27 25 -17 26 10 1 22 -7 28 -19
15z"/>
<path d="M946 404 c-8 -22 -8 -24 8 -24 7 0 16 9 19 20 6 24 -18 28 -27 4z"/>
<path d="M1648 389 l-28 -20 22 -39 c13 -21 28 -36 35 -33 9 4 10 10 3 23 -12
23 -2 32 22 19 15 -8 23 -8 31 0 9 9 6 13 -11 17 -12 4 -19 10 -16 16 6 9 -13
38 -25 38 -3 0 -18 -10 -33 -21z m38 -10 c10 -17 -13 -36 -27 -22 -12 12 -4
33 11 33 5 0 12 -5 16 -11z"/>
<path d="M1140 379 c0 -24 23 -21 28 4 2 10 -3 17 -12 17 -10 0 -16 -9 -16
-21z"/>
<path d="M602 324 c-13 -20 -21 -39 -17 -42 4 -4 10 0 15 8 5 8 15 24 23 35
14 18 15 16 8 -22 -10 -52 6 -63 40 -27 26 28 36 25 19 -6 -6 -12 -8 -29 -5
-38 6 -13 12 -7 26 26 28 63 8 83 -39 40 l-24 -23 4 37 c3 32 -6 49 -25 48 -1
0 -12 -16 -25 -36z"/>
<path d="M1557 333 c-4 -3 -7 -29 -6 -57 0 -39 2 -46 9 -29 9 22 43 39 60 28
5 -3 15 -3 20 0 6 4 -7 20 -30 36 -44 32 -44 32 -53 22z"/>
<path d="M1484 276 c4 -18 1 -25 -15 -29 -15 -4 -23 0 -26 13 -3 10 -11 16
-18 14 -11 -5 -11 -14 2 -49 10 -30 19 -42 29 -38 10 3 11 10 4 23 -11 20 -4
30 22 30 10 0 18 -7 18 -15 0 -8 7 -15 15 -15 19 0 19 11 -2 55 -19 40 -38 47
-29 11z"/>
<path d="M745 254 c-8 -20 -13 -40 -10 -44 7 -12 65 -30 65 -21 0 5 -9 11 -20
14 -11 3 -20 12 -20 21 0 12 7 15 28 11 25 -5 25 -5 5 4 -13 6 -23 14 -23 19
0 17 13 21 31 11 11 -5 19 -6 19 -1 0 9 -32 21 -52 22 -4 0 -15 -16 -23 -36z"/>
<path d="M832 221 c-14 -46 -15 -51 -3 -51 5 0 12 17 16 38 l7 37 22 -44 c26
-54 43 -62 52 -24 3 15 8 36 11 46 2 9 0 17 -6 17 -6 0 -11 -11 -11 -24 0 -41
-17 -38 -34 4 -20 50 -40 51 -54 1z"/>
<path d="M1365 243 c14 -36 17 -73 7 -73 -6 0 -12 5 -14 12 -2 6 -10 8 -16 4
-7 -4 -10 -12 -7 -17 9 -13 38 -11 58 4 14 10 15 17 5 50 -6 20 -18 37 -26 37
-9 0 -12 -6 -7 -17z"/>
<path d="M963 229 c15 -9 17 -18 12 -50 -6 -32 -4 -39 9 -39 12 0 16 10 16 40
0 34 3 40 22 40 33 0 18 7 -32 14 -35 5 -41 4 -27 -5z"/>
<path d="M1236 233 c-26 -4 -28 -7 -22 -35 3 -17 6 -37 6 -44 0 -8 6 -14 14
-14 9 0 12 7 9 20 -4 15 0 20 16 20 11 0 21 5 21 11 0 6 -9 8 -20 4 -14 -5
-20 -2 -20 9 0 9 9 16 20 16 11 0 20 5 20 10 0 6 -3 9 -7 9 -5 -1 -21 -4 -37
-6z"/>
<path d="M1113 220 c-26 -10 -32 -57 -11 -78 15 -15 61 -15 76 0 19 19 14 55
-10 72 -25 18 -25 18 -55 6z m50 -29 c6 -23 -10 -51 -28 -51 -16 0 -31 43 -20
59 10 18 42 12 48 -8z"/>
</g>
</svg>
