<?xml version="1.0" standalone="no"?>
<!DOCTYPE svg PUBLIC "-//W3C//DTD SVG 20010904//EN"
 "http://www.w3.org/TR/2001/REC-SVG-20010904/DTD/svg10.dtd">
<svg version="1.0" xmlns="http://www.w3.org/2000/svg"
 width="230.000000pt" height="219.000000pt" viewBox="0 0 230.000000 219.000000"
 preserveAspectRatio="xMidYMid meet">
<metadata>
Created by potrace 1.10, written by Peter Selinger 2001-2011
</metadata>
<g transform="translate(0.000000,219.000000) scale(0.100000,-0.100000)"
fill="#000000" stroke="none">
<path d="M231 2044 l-31 -26 0 -770 0 -770 29 -29 29 -29 897 0 c826 0 899 1
926 17 15 9 33 30 39 46 14 41 13 1484 -1 1525 -23 66 34 62 -958 62 l-899 0
-31 -26z m1833 -30 c9 -8 18 -25 21 -37 3 -12 4 -349 3 -748 -3 -699 -4 -728
-22 -748 -19 -21 -23 -21 -547 -21 -290 0 -529 3 -531 8 -2 4 -2 43 1 87 l6
79 39 15 39 15 29 -35 c73 -88 86 -99 110 -99 13 0 35 11 47 24 30 32 24 70
-25 151 l-36 60 18 32 c20 39 31 40 87 12 53 -27 57 -33 57 -97 0 -46 4 -58
29 -83 39 -38 72 -38 105 2 25 30 26 34 26 180 0 82 3 149 8 149 7 0 53 -67
150 -220 91 -145 131 -170 183 -114 l24 26 0 293 0 293 -23 25 c-42 45 -92 37
-121 -20 -6 -12 -11 -73 -11 -142 0 -67 -4 -121 -9 -121 -5 0 -49 62 -99 138
-50 76 -104 151 -122 165 -38 33 -76 34 -107 5 -22 -21 -23 -21 -56 -3 -43 23
-66 17 -145 -36 l-63 -42 -34 16 c-40 19 -40 18 -20 83 15 52 12 78 -13 107
-14 16 -12 17 27 17 34 0 49 6 72 29 l29 29 29 -29 c63 -63 171 -20 171 68 l0
38 29 -51 c50 -87 158 -115 247 -65 l42 23 30 -22 c25 -18 38 -21 78 -16 65 7
62 7 121 0 49 -6 54 -5 83 24 l31 31 -1 200 c-1 181 -3 203 -21 224 -22 30
-72 41 -118 27 -23 -6 -48 -6 -77 1 -37 10 -49 8 -87 -10 l-43 -21 -39 20
c-48 25 -120 26 -176 3 -36 -14 -44 -14 -63 -2 -29 19 -475 21 -525 2 -23 -9
-38 -10 -46 -3 -21 17 -112 19 -135 3 -16 -12 -24 -12 -35 -3 -19 16 -111 16
-130 0 -11 -9 -24 -8 -59 5 -166 63 -304 -78 -221 -224 l26 -44 -21 -22 c-31
-33 -28 -114 6 -155 67 -79 170 -86 265 -18 14 9 23 7 49 -15 25 -22 42 -27
84 -27 31 0 61 6 74 16 21 14 26 14 56 0 47 -22 127 -21 157 3 25 19 49 18 49
-2 0 -7 -13 -20 -29 -29 -22 -12 -34 -30 -45 -68 -20 -66 -31 -80 -66 -80 -23
0 -31 7 -45 43 -34 86 -83 109 -130 62 -29 -28 -30 -43 -9 -114 14 -48 14 -55
-1 -77 -24 -37 -41 -39 -114 -16 -84 27 -125 28 -151 2 -45 -45 -5 -120 70
-134 16 -3 44 -9 60 -12 31 -6 39 -24 18 -41 -7 -6 -43 -20 -80 -32 -79 -26
-118 -59 -118 -99 0 -33 22 -57 67 -72 25 -9 43 -7 103 14 57 20 76 23 87 14
33 -27 33 -44 -3 -99 -47 -74 -60 -123 -39 -155 19 -29 56 -40 84 -25 11 6 39
38 61 71 58 85 83 79 93 -20 3 -30 9 -70 13 -87 l6 -33 -290 0 c-289 0 -291 0
-306 22 -14 20 -16 109 -16 767 0 679 1 746 17 763 15 17 57 18 904 18 793 0
889 -2 903 -16z m-1571 -116 c32 -12 47 -42 47 -94 l0 -35 -52 3 c-51 3 -52 4
-53 33 0 20 -6 31 -17 33 -14 3 -18 -4 -18 -31 0 -31 6 -39 48 -66 77 -49 95
-73 100 -136 6 -74 -10 -110 -59 -129 -48 -20 -80 -20 -122 -2 -47 19 -64 44
-72 104 l-7 52 56 0 56 0 0 -45 c0 -38 3 -45 20 -45 17 0 20 7 20 39 0 37 -4
42 -62 83 -35 24 -69 55 -76 68 -19 37 -10 126 15 152 35 35 110 42 176 16z
m1157 -1 c37 -17 61 -73 58 -131 l-3 -49 -55 0 -55 0 -3 62 c-3 52 -6 62 -20
59 -15 -3 -17 -20 -17 -148 0 -130 2 -145 18 -148 14 -3 17 5 17 52 l0 56 61
0 62 0 -7 -62 c-7 -70 -28 -101 -83 -119 -47 -15 -115 -3 -146 25 -34 31 -39
67 -35 224 3 122 5 132 27 156 42 45 115 54 181 23z m-965 -142 l10 -150 13
145 c8 79 16 148 18 152 3 5 31 8 64 8 l58 0 7 -107 c13 -194 20 -213 29 -83
4 63 10 132 13 153 l6 37 53 0 c30 0 54 -2 54 -5 0 -13 -41 -374 -46 -403 l-5
-33 -72 3 -72 3 -16 115 -15 115 -14 -117 -13 -118 -72 0 -72 0 -7 58 c-4 31
-13 116 -21 187 -8 72 -17 145 -21 163 l-5 33 58 -3 58 -3 10 -150z m465 -65
l0 -220 -60 0 -60 0 0 220 0 220 60 0 60 0 0 -220z m270 175 c0 -45 0 -45 -35
-45 l-35 0 0 -175 0 -175 -55 0 -55 0 0 175 0 175 -35 0 c-35 0 -35 0 -35 45
l0 45 125 0 125 0 0 -45z m440 -35 c0 -70 2 -80 18 -80 15 0 17 9 14 80 l-4
80 61 0 61 0 0 -220 0 -220 -61 0 -60 0 2 92 c2 78 -1 92 -15 94 -14 2 -16
-10 -16 -92 l0 -94 -57 0 -58 0 2 217 c2 120 3 219 3 221 0 1 25 2 55 2 l55 0
0 -80z m-826 -436 c21 -8 20 -43 -4 -104 -24 -61 -25 -80 -5 -80 9 0 33 -11
55 -25 46 -29 49 -28 139 38 55 41 96 50 112 26 16 -26 4 -44 -57 -84 -112
-75 -107 -68 -89 -101 8 -16 19 -41 24 -55 7 -19 33 -38 100 -73 l91 -47 0
184 c0 152 3 187 15 197 40 33 83 -21 302 -369 l53 -84 0 209 c0 217 3 234 42
234 34 0 38 -33 38 -315 0 -283 -4 -315 -39 -315 -18 0 -42 35 -253 369 l-78
124 0 -236 c0 -226 -1 -237 -20 -247 -14 -8 -26 -8 -40 0 -17 9 -20 21 -20 88
l0 78 -75 37 c-96 47 -111 47 -130 0 -9 -21 -23 -45 -32 -55 -15 -16 -14 -21
9 -56 14 -21 38 -62 53 -91 24 -48 25 -55 12 -69 -23 -22 -41 -10 -85 55 -57
85 -64 89 -107 68 -20 -9 -51 -19 -69 -22 l-34 -5 5 -78 c7 -92 -1 -130 -25
-130 -30 0 -46 41 -50 133 -4 72 -7 87 -21 87 -9 0 -31 9 -49 20 l-32 20 -30
-48 c-60 -98 -81 -123 -98 -120 -40 8 -17 87 50 171 l30 38 -25 32 c-13 18
-27 42 -31 55 -9 28 -13 27 -86 -2 -80 -33 -112 -39 -143 -27 -29 11 -36 41
-14 59 7 6 57 26 111 46 54 19 100 36 101 38 2 2 5 21 7 42 3 39 2 40 -37 52
-22 6 -63 14 -90 17 -53 7 -78 28 -73 62 5 35 72 23 220 -39 11 -5 18 -1 23
13 3 11 22 34 41 51 l35 30 -20 56 c-25 66 -27 110 -5 118 18 7 54 -10 54 -25
0 -6 7 -35 15 -64 l16 -53 62 5 c34 3 65 10 68 16 4 5 15 39 24 76 10 36 23
69 29 73 13 9 11 9 30 2z m326 -322 c0 -54 -3 -101 -6 -105 -4 -3 -27 5 -53
18 -44 22 -71 56 -71 90 0 13 104 93 123 94 4 1 7 -43 7 -97z"/>
<path d="M869 1181 c-56 -11 -103 -46 -132 -99 -36 -66 -43 -118 -23 -184 39
-136 172 -212 292 -167 115 43 178 181 133 292 -49 122 -150 182 -270 158z
m141 -56 c62 -32 100 -104 100 -188 0 -139 -146 -222 -266 -152 -144 85 -126
318 27 355 40 10 104 3 139 -15z"/>
<path d="M250 255 c0 -87 3 -105 15 -105 11 0 15 12 15 50 0 43 3 50 20 50 11
0 20 7 20 15 0 8 -9 15 -20 15 -15 0 -20 7 -20 25 0 21 5 25 30 25 20 0 30 5
30 15 0 11 -12 15 -45 15 l-45 0 0 -105z"/>
<path d="M440 334 c-16 -40 -12 -136 6 -162 18 -26 46 -28 68 -6 12 11 16 36
16 93 0 85 -8 101 -52 101 -21 0 -31 -6 -38 -26z m58 -78 c3 -70 1 -77 -15
-74 -15 3 -19 15 -21 67 -3 71 2 95 21 89 8 -3 13 -31 15 -82z"/>
<path d="M640 277 c0 -89 15 -127 50 -127 35 0 50 38 50 127 0 66 -3 83 -15
83 -11 0 -15 -19 -17 -87 -2 -70 -6 -88 -18 -88 -12 0 -16 18 -18 88 -2 68 -6
87 -17 87 -12 0 -15 -17 -15 -83z"/>
<path d="M850 254 c0 -80 3 -105 13 -101 8 3 11 27 9 83 -3 89 6 84 33 -19 25
-96 39 -82 43 41 2 89 1 102 -14 102 -14 0 -16 -10 -12 -69 2 -38 0 -67 -4
-65 -4 3 -8 10 -8 16 0 32 -33 118 -46 118 -11 0 -14 -21 -14 -106z"/>
<path d="M1062 258 l3 -103 34 2 c49 2 56 15 56 104 0 89 -6 99 -63 99 l-33 0
3 -102z m56 70 c12 -12 17 -104 6 -132 -3 -9 -12 -16 -20 -16 -11 0 -14 18
-14 80 0 79 5 91 28 68z"/>
<path d="M1285 348 c-2 -7 -9 -48 -14 -90 -6 -42 -12 -83 -13 -90 -2 -7 4 -13
12 -13 8 0 16 10 18 23 4 27 32 30 32 3 0 -21 15 -35 28 -27 5 3 2 49 -7 103
-13 77 -20 99 -34 101 -9 2 -19 -2 -22 -10z m31 -125 c-15 -15 -24 15 -18 62
l6 50 10 -53 c5 -29 6 -55 2 -59z"/>
<path d="M1440 345 c0 -8 6 -14 13 -12 9 1 13 -23 15 -91 2 -68 6 -92 15 -89
8 2 13 33 15 88 2 60 7 86 17 92 28 15 15 27 -30 27 -33 0 -45 -4 -45 -15z"/>
<path d="M1630 254 c0 -80 3 -105 13 -102 8 3 13 36 15 106 2 86 0 102 -13
102 -12 0 -15 -17 -15 -106z"/>
<path d="M1782 348 c-19 -19 -16 -162 4 -183 41 -41 84 6 83 90 -1 79 -10 100
-44 103 -17 2 -36 -3 -43 -10z m53 -89 c0 -62 -3 -74 -17 -77 -16 -3 -18 5
-18 71 0 40 3 77 7 81 19 18 28 -6 28 -75z"/>
<path d="M1980 254 c0 -80 3 -105 13 -101 9 3 11 26 8 83 -2 43 -1 77 2 74 3
-3 14 -39 25 -80 29 -110 42 -102 42 24 0 64 -4 106 -10 106 -6 0 -10 -30 -11
-67 l-1 -68 -20 68 c-32 103 -48 90 -48 -39z"/>
</g>
</svg>
