<?xml version="1.0" standalone="no"?>
<!DOCTYPE svg PUBLIC "-//W3C//DTD SVG 20010904//EN"
 "http://www.w3.org/TR/2001/REC-SVG-20010904/DTD/svg10.dtd">
<svg version="1.0" xmlns="http://www.w3.org/2000/svg"
 width="1102.000000pt" height="752.000000pt" viewBox="0 0 1102.000000 752.000000"
 preserveAspectRatio="xMidYMid meet">

<g transform="translate(0.000000,752.000000) scale(0.100000,-0.100000)"
fill="#000000" stroke="none">
<path d="M6765 7364 c-135 -35 -221 -91 -256 -169 -22 -47 -23 -77 -5 -127
l14 -38 -258 0 c-141 0 -312 -3 -379 -7 l-122 -6 3 -81 3 -81 408 -3 407 -2 0
-65 0 -65 -270 0 -270 0 0 -84 0 -83 72 -7 c59 -6 76 -12 99 -35 89 -90 39
-281 -75 -281 -57 0 -106 74 -106 163 l0 37 -115 0 -115 0 -6 -26 c-27 -106
69 -269 197 -335 59 -30 175 -37 251 -15 171 49 280 257 219 416 -31 80 -31
80 49 80 l70 0 2 -237 c0 -131 1 -244 1 -250 -1 -10 27 -13 108 -13 l109 0 0
400 0 400 69 0 c63 0 69 -2 75 -23 3 -13 3 -193 1 -400 l-5 -377 110 0 110 0
0 400 0 400 60 0 60 0 0 85 0 85 -30 0 c-35 0 -35 3 -15 60 35 100 -40 206
-184 261 -41 16 -83 23 -161 25 -58 1 -114 1 -125 -2z m157 -174 c70 -20 103
-104 58 -145 -37 -34 -191 -33 -225 1 -23 24 -19 87 8 112 43 40 92 50 159 32z"/>
<path d="M8323 7359 c-96 -19 -200 -85 -233 -148 -22 -43 -26 -97 -11 -149
l10 -32 -87 -2 c-48 -1 -139 -2 -202 -2 -63 -1 -179 -2 -257 -3 l-143 -3 0
-85 0 -85 169 0 169 0 33 -27 c40 -34 59 -79 59 -138 0 -108 -82 -166 -170
-120 -29 15 -30 18 -30 90 l0 75 -111 0 -111 0 5 -247 c5 -261 10 -298 54
-364 45 -69 67 -74 341 -77 l243 -4 -3 89 -3 88 -190 3 c-226 3 -225 2 -225
108 l0 63 41 -14 c85 -30 200 -9 270 49 29 25 36 26 145 26 l114 0 0 -199 c0
-150 3 -200 13 -203 6 -2 56 -2 110 0 l97 3 0 400 0 399 65 0 65 0 0 -400 0
-400 110 0 110 0 0 400 0 400 45 0 46 0 -3 88 -3 87 -28 3 c-24 3 -28 7 -23
25 18 65 17 96 -1 138 -50 112 -191 181 -366 178 -40 -1 -91 -5 -114 -10z
m181 -173 c75 -31 93 -96 40 -143 -47 -43 -209 -26 -228 22 -20 52 6 98 69
120 51 18 78 18 119 1z m-306 -448 l-3 -112 -62 -4 -63 -4 0 44 c-1 23 -10 68
-21 98 -11 30 -23 63 -26 73 -5 15 4 17 86 17 l92 0 -3 -112z"/>
<path d="M2990 7276 l0 -86 63 -1 c34 0 80 -6 101 -12 47 -15 94 -69 103 -120
l6 -37 -197 0 -196 0 0 -85 0 -85 35 0 35 0 0 -230 0 -230 -44 0 c-43 0 -44 1
-51 38 -4 20 -20 60 -36 89 l-30 52 21 42 c84 163 -26 376 -214 418 -205 46
-416 -97 -416 -281 l0 -38 105 0 c105 0 105 0 105 24 0 42 18 75 52 96 60 37
124 21 165 -39 54 -80 7 -170 -89 -171 l-48 0 0 -85 0 -85 43 0 c23 0 52 -3
64 -6 34 -9 63 -64 63 -117 0 -40 -5 -51 -35 -82 -30 -30 -42 -35 -81 -35 -57
0 -108 23 -123 56 -6 14 -11 45 -11 70 0 31 -5 46 -15 50 -9 4 -59 3 -112 -1
l-96 -7 6 -64 c3 -43 13 -77 30 -107 141 -240 486 -246 619 -10 30 53 30 53
79 53 l48 0 3 -97 3 -98 108 -3 107 -3 0 401 0 400 65 0 65 0 2 -397 3 -398
108 -3 107 -3 0 401 0 400 40 0 40 0 0 85 0 85 -44 0 c-26 0 -46 5 -49 13 -54
125 -110 244 -124 260 -40 44 -100 60 -245 65 l-138 5 0 -87z"/>
<path d="M3680 6935 l0 -85 44 0 45 0 3 -317 c3 -348 6 -363 66 -426 56 -59
71 -61 375 -64 179 -2 285 1 298 7 16 9 19 22 19 85 0 40 -4 76 -8 79 -5 3
-105 6 -223 6 -118 1 -230 5 -250 11 -66 17 -67 25 -61 432 l2 187 113 0 c129
0 148 -8 178 -74 23 -50 25 -136 4 -176 -23 -44 -66 -63 -112 -51 -20 6 -38 9
-39 8 -4 -4 -53 -191 -51 -193 2 -2 29 -7 61 -12 138 -22 292 54 351 173 31
63 28 194 -6 262 -14 29 -24 55 -21 58 10 10 861 5 867 -5 3 -5 3 -38 -1 -74
l-7 -64 -266 -4 -266 -4 -58 -29 c-106 -53 -160 -140 -161 -260 0 -88 25 -147
89 -209 55 -54 89 -72 166 -88 218 -45 420 154 366 360 -8 29 -11 55 -6 57 4
3 39 2 78 -1 l71 -7 0 -233 0 -234 110 0 c83 0 110 3 109 13 -1 6 -1 186 0
400 l1 387 45 0 45 0 0 85 0 85 -985 0 -985 0 0 -85z m1254 -429 c44 -18 66
-52 66 -101 0 -113 -132 -165 -200 -78 -41 52 -17 152 43 178 41 18 50 18 91
1z"/>
<path d="M5570 5723 c-1 -4 0 -573 2 -1263 2 -690 3 -1435 3 -1655 l0 -400
-61 -3 -61 -3 -6 83 c-4 46 -9 711 -12 1478 -3 767 -8 1472 -10 1565 -3 94 -5
176 -5 184 0 22 -181 7 -330 -28 -349 -81 -647 -242 -898 -485 -297 -286 -488
-641 -558 -1036 -15 -84 -19 -153 -19 -340 1 -216 3 -245 28 -362 33 -153 72
-282 93 -303 15 -14 82 -15 668 -10 358 4 656 8 663 10 15 5 28 71 58 310 30
237 39 298 105 769 28 198 52 361 54 363 3 4 16 -1052 16 -1364 l0 -223 -740
0 c-407 0 -740 -3 -740 -6 0 -3 17 -30 38 -60 l37 -54 473 0 c259 0 472 -4
472 -8 0 -5 -28 -29 -62 -54 -35 -26 -93 -76 -130 -112 -113 -111 -270 -335
-284 -403 -5 -26 -1 -30 50 -56 31 -15 59 -27 61 -27 3 0 19 28 36 63 112 222
320 429 544 543 76 38 102 46 168 51 l77 6 0 -101 0 -100 -52 -17 c-149 -49
-311 -165 -408 -293 -51 -67 -124 -204 -135 -253 -6 -24 -3 -26 52 -39 32 -7
63 -14 69 -17 5 -2 23 27 38 63 67 165 217 317 384 389 56 24 62 16 62 -88 0
-67 -3 -79 -22 -95 -78 -62 -112 -101 -144 -167 -32 -64 -59 -178 -47 -198 2
-4 193 -7 425 -7 l420 0 -7 56 c-14 115 -71 216 -161 287 l-54 42 0 92 c0 69
3 93 13 93 25 0 153 -68 205 -109 103 -82 190 -193 232 -295 25 -62 28 -63
105 -38 44 15 50 20 47 42 -9 67 -118 238 -209 328 -96 95 -273 202 -360 218
l-33 6 0 100 0 100 78 -3 c66 -3 90 -10 153 -41 227 -112 441 -315 542 -513
47 -93 45 -91 115 -64 34 13 62 28 62 34 0 14 -73 147 -118 214 -50 76 -233
263 -309 318 -35 25 -63 49 -63 54 0 5 195 9 473 9 l474 0 36 53 c21 30 37 57
37 60 0 4 -332 7 -738 7 l-739 0 -6 317 c-8 377 -9 1259 -2 1251 3 -3 12 -45
20 -94 24 -150 165 -1102 180 -1213 7 -57 19 -109 27 -116 10 -10 151 -12 675
-8 l662 6 20 48 c56 129 101 404 101 612 0 345 -87 674 -254 959 -98 167 -290
394 -435 512 -210 172 -485 309 -747 375 -158 39 -394 72 -394 54z m-183 -170
c-3 -27 -22 -127 -42 -223 -20 -96 -119 -589 -221 -1094 -101 -506 -187 -922
-190 -925 -3 -3 -257 -7 -564 -9 l-558 -2 -11 32 c-67 206 -87 546 -46 795 66
404 291 798 605 1057 252 209 551 348 850 396 41 6 82 13 90 15 8 1 32 3 54 4
l39 1 -6 -47z m430 22 c430 -80 786 -291 1075 -640 56 -67 162 -236 208 -330
179 -370 224 -765 135 -1169 -14 -60 -26 -110 -27 -112 -2 -1 -256 -5 -565 -9
l-561 -8 -11 39 c-6 21 -26 113 -45 204 -46 217 -99 467 -141 665 -19 88 -46
212 -59 275 -32 150 -151 704 -181 845 -13 61 -29 135 -35 165 -6 30 -13 65
-16 78 -4 20 -1 22 40 22 25 0 107 -11 183 -25z"/>
<path d="M2855 1628 c-152 -13 -286 -70 -342 -146 -82 -111 -98 -202 -97 -542
1 -212 5 -292 17 -348 44 -198 130 -288 315 -328 98 -21 414 -30 542 -15 248
29 352 105 406 298 21 74 32 559 15 682 -33 245 -136 358 -357 390 -88 13
-382 18 -499 9z m457 -300 c46 -14 84 -54 97 -106 16 -60 24 -377 13 -486 -9
-77 -16 -107 -36 -137 -38 -56 -72 -63 -326 -64 -196 0 -219 2 -254 20 -48 24
-74 58 -86 111 -13 55 -12 482 1 544 13 60 52 103 106 118 55 14 437 15 485 0z"/>
<path d="M4711 1630 c-89 -13 -162 -51 -246 -131 -40 -38 -75 -69 -79 -69 -3
0 -6 45 -6 100 l0 100 -140 0 -140 0 0 -278 c0 -153 3 -462 7 -685 l6 -407
143 0 143 0 3 413 3 412 27 57 c49 106 151 178 278 197 150 24 284 -32 343
-143 22 -40 22 -50 25 -489 l3 -448 147 3 147 3 0 470 c0 334 -4 487 -13 530
-36 178 -171 319 -337 353 -75 16 -242 22 -314 12z"/>
<path d="M6175 1629 c-293 -24 -410 -129 -446 -401 -7 -50 -9 -181 -6 -342 4
-225 7 -272 26 -341 42 -158 128 -240 298 -282 104 -26 536 -25 648 1 150 35
223 86 271 191 44 96 56 176 58 380 l1 190 -297 3 -298 2 0 -149 0 -150 56 -7
c30 -3 96 -3 146 1 l91 7 -5 -56 c-5 -63 -26 -93 -87 -123 -32 -16 -63 -18
-252 -17 -234 2 -270 8 -311 52 -53 56 -53 58 -51 344 1 172 5 279 13 302 28
86 101 106 376 105 144 0 188 -3 224 -17 55 -21 85 -63 94 -131 l7 -51 144 0
145 0 0 48 c0 59 -33 192 -61 247 -42 81 -117 139 -221 169 -114 33 -343 43
-563 25z"/>
<path d="M7830 1630 c-236 -20 -348 -92 -404 -261 -39 -117 -54 -365 -38 -602
16 -236 38 -310 114 -393 88 -97 217 -130 518 -133 485 -5 627 90 665 442 l7
67 -150 0 -149 0 -7 -51 c-11 -79 -38 -123 -88 -145 -37 -16 -70 -18 -245 -17
-238 1 -290 10 -332 59 -40 45 -43 74 -39 374 3 289 7 304 83 344 36 19 60 21
229 24 222 5 283 -1 328 -32 41 -27 60 -66 66 -133 l4 -53 151 0 150 0 -7 73
c-25 258 -120 376 -341 422 -91 18 -377 27 -515 15z"/>
</g>
</svg>
